<?xml version="1.0" standalone="no"?>
<!DOCTYPE svg PUBLIC "-//W3C//DTD SVG 20010904//EN"
 "http://www.w3.org/TR/2001/REC-SVG-20010904/DTD/svg10.dtd">
<svg version="1.0" xmlns="http://www.w3.org/2000/svg"
 width="50.000000pt" height="50.000000pt" viewBox="0 0 50.000000 50.000000"
 preserveAspectRatio="xMidYMid meet">
<metadata>
Created by potrace 1.16, written by Peter Selinger 2001-2019
</metadata>
<g transform="translate(0.000000,50.000000) scale(0.009766,-0.009766)"
fill="#000000" stroke="none">
<path d="M1771 5044 c125 -131 178 -224 197 -348 14 -87 6 -106 -88 -223 -131
-161 -170 -283 -141 -435 40 -209 227 -409 440 -472 39 -11 96 -16 194 -16
l139 0 -86 94 c-120 133 -147 195 -147 331 0 101 24 181 84 277 66 107 83 145
101 225 31 139 16 280 -41 386 -31 57 -126 148 -186 179 -116 59 -172 71 -362
75 l-180 5 76 -78z m370 -154 c111 -57 163 -145 161 -275 -1 -96 -15 -138 -88
-267 -71 -124 -90 -176 -106 -282 -12 -84 -3 -220 17 -270 7 -16 6 -17 -13 -7
-33 17 -117 103 -145 147 -37 59 -59 131 -59 196 0 71 36 142 122 243 33 39
74 98 92 132 29 60 31 67 25 155 -4 80 -22 160 -52 231 -9 22 -3 22 46 -3z"/>
<path d="M2692 5023 c52 -54 106 -118 121 -143 40 -70 67 -163 67 -229 0 -57
-3 -63 -50 -123 -154 -195 -190 -269 -190 -397 0 -229 182 -473 415 -557 38
-14 89 -19 209 -22 l160 -4 -84 88 c-94 100 -132 170 -150 273 -20 121 11 234
108 387 75 119 110 305 83 436 -38 180 -180 313 -396 368 -62 16 -111 20 -233
20 l-156 0 96 -97z m411 -166 c40 -28 85 -93 98 -140 15 -56 13 -160 -5 -221
-8 -28 -40 -92 -70 -142 -102 -168 -138 -344 -104 -506 14 -66 14 -67 -6 -56
-40 21 -131 124 -158 178 -15 30 -33 81 -38 113 -19 102 5 155 154 337 56 68
86 143 86 215 0 67 -24 184 -50 241 l-19 44 42 -21 c23 -12 55 -31 70 -42z"/>
<path d="M410 4955 l0 -85 85 0 85 0 0 85 0 85 -85 0 -85 0 0 -85z"/>
<path d="M4179 5012 c-104 -54 -155 -164 -130 -277 41 -181 256 -255 406 -141
87 67 115 213 60 314 -67 124 -213 169 -336 104z m177 -180 c46 -60 -28 -142
-96 -107 -54 28 -53 106 2 130 36 15 73 6 94 -23z"/>
<path d="M195 4920 l-60 -60 63 -63 62 -62 62 62 63 63 -60 60 c-33 33 -62 60
-65 60 -3 0 -32 -27 -65 -60z"/>
<path d="M665 4920 l-60 -60 63 -63 62 -62 62 62 63 63 -60 60 c-33 33 -62 60
-65 60 -3 0 -32 -27 -65 -60z"/>
<path d="M80 4625 l0 -85 85 0 85 0 0 85 0 85 -85 0 -85 0 0 -85z"/>
<path d="M740 4625 l0 -85 85 0 85 0 0 85 0 85 -85 0 -85 0 0 -85z"/>
<path d="M195 4450 l-60 -60 63 -63 62 -62 62 62 63 63 -60 60 c-33 33 -62 60
-65 60 -3 0 -32 -27 -65 -60z"/>
<path d="M665 4450 l-60 -60 63 -63 62 -62 62 62 63 63 -60 60 c-33 33 -62 60
-65 60 -3 0 -32 -27 -65 -60z"/>
<path d="M410 4295 l0 -85 85 0 85 0 0 85 0 85 -85 0 -85 0 0 -85z"/>
<path d="M4540 3880 l0 -90 85 0 85 0 0 90 0 90 -85 0 -85 0 0 -90z"/>
<path d="M4327 3852 c-31 -32 -57 -62 -57 -68 0 -5 27 -36 60 -69 l60 -59 60
59 c33 33 60 64 60 70 0 10 -111 125 -121 125 -2 0 -30 -26 -62 -58z"/>
<path d="M4797 3852 c-31 -32 -57 -62 -57 -68 0 -5 26 -35 58 -67 l58 -57 62
63 62 63 -63 62 -63 62 -57 -58z"/>
<path d="M575 3789 c-48 -13 -115 -78 -141 -133 -77 -166 43 -356 226 -356
104 0 211 76 238 169 18 57 14 140 -7 186 -23 50 -84 109 -133 130 -40 16
-134 19 -183 4z m131 -182 c54 -47 23 -131 -47 -129 -82 2 -100 112 -24 142
32 14 42 12 71 -13z"/>
<path d="M4210 3550 l0 -90 85 0 85 0 0 90 0 90 -85 0 -85 0 0 -90z"/>
<path d="M4870 3550 l0 -90 85 0 85 0 0 90 0 90 -85 0 -85 0 0 -90z"/>
<path d="M1313 3428 c-330 -261 -535 -590 -625 -1001 -19 -89 -22 -132 -22
-332 0 -202 2 -243 22 -335 80 -368 275 -700 542 -925 46 -38 97 -81 113 -95
l29 -26 -53 -107 -54 -107 -97 0 -98 0 0 -250 0 -250 1490 0 1490 0 0 250 0
250 -98 0 -97 0 -54 107 -53 107 29 26 c16 14 67 57 113 95 267 225 462 557
542 925 20 92 22 133 22 335 0 200 -3 243 -22 332 -90 411 -295 740 -625 1001
-43 34 -82 62 -87 62 -5 0 -36 -17 -67 -37 -196 -125 -536 -246 -813 -289
-141 -22 -420 -22 -559 0 -282 44 -617 163 -814 289 -31 20 -62 37 -67 37 -5
0 -44 -28 -87 -62z m506 -331 c510 -170 972 -170 1482 0 76 25 199 76 274 113
l137 67 51 -42 c29 -23 84 -78 123 -121 204 -228 319 -460 381 -769 23 -117
23 -371 -1 -500 -55 -305 -192 -572 -402 -787 -100 -102 -256 -228 -282 -228
l-22 0 0 318 c0 174 -5 365 -10 424 -50 521 -471 908 -990 908 -519 0 -940
-387 -990 -908 -5 -59 -10 -250 -10 -424 l0 -318 -22 0 c-26 0 -182 126 -282
228 -210 215 -347 482 -402 787 -24 129 -24 383 -1 500 62 309 177 541 381
769 39 43 94 98 123 121 l51 42 137 -67 c75 -37 198 -88 274 -113z m926 -814
c39 -8 115 -36 170 -63 215 -104 360 -275 431 -505 l28 -90 4 -397 3 -398
-120 0 -121 0 0 165 0 165 -245 0 -245 0 0 90 c0 75 3 90 16 90 27 0 119 101
132 146 17 58 14 140 -7 201 -17 50 -216 363 -231 363 -15 0 -214 -313 -231
-363 -21 -61 -24 -143 -7 -201 13 -45 105 -146 132 -146 13 0 16 -15 16 -90
l0 -90 -245 0 -245 0 0 -165 0 -165 -121 0 -120 0 3 398 4 397 28 90 c100 325
372 549 716 589 54 6 177 -4 255 -21z m-143 -610 c53 -94 34 -176 -41 -176
-55 0 -85 45 -71 106 10 47 58 129 72 125 6 -2 24 -27 40 -55z m368 -763 l0
-80 -410 0 -410 0 0 80 0 80 410 0 410 0 0 -80z m643 -325 c20 -42 37 -78 37
-80 0 -3 -43 -5 -95 -5 l-95 0 0 -85 0 -85 210 0 210 0 0 -80 0 -80 -1320 0
-1320 0 0 80 0 80 1035 0 1035 0 0 85 0 85 -920 0 c-506 0 -920 2 -920 5 0 2
17 38 37 80 l37 75 1016 0 1016 0 37 -75z"/>
<path d="M1172 2778 c-61 -108 -62 -98 24 -141 42 -21 78 -37 79 -35 9 9 85
149 85 155 0 9 -125 93 -138 93 -5 0 -27 -33 -50 -72z"/>
<path d="M1037 2458 c-34 -129 -38 -156 -44 -303 -11 -276 42 -500 168 -721
42 -74 153 -227 166 -231 5 -1 36 23 71 55 l63 57 -61 80 c-227 301 -294 678
-185 1050 5 18 -3 24 -67 44 -40 13 -78 26 -84 28 -6 2 -18 -23 -27 -59z"/>
<path d="M4325 3380 l-60 -60 63 -63 62 -62 62 62 63 63 -60 60 c-33 33 -62
60 -65 60 -3 0 -32 -27 -65 -60z"/>
<path d="M4797 3382 c-31 -32 -57 -62 -57 -68 0 -13 102 -114 116 -114 5 0 36
27 69 60 l59 60 -59 60 c-33 33 -62 60 -65 60 -3 0 -31 -26 -63 -58z"/>
<path d="M4540 3220 l0 -90 85 0 85 0 0 90 0 90 -85 0 -85 0 0 -90z"/>
</g>
</svg>
