<?xml version="1.0" standalone="no"?>
<!DOCTYPE svg PUBLIC "-//W3C//DTD SVG 20010904//EN"
 "http://www.w3.org/TR/2001/REC-SVG-20010904/DTD/svg10.dtd">
<svg version="1.0" xmlns="http://www.w3.org/2000/svg"
 width="50.000000pt" height="50.000000pt" viewBox="0 0 50.000000 50.000000"
 preserveAspectRatio="xMidYMid meet">
<metadata>
Created by potrace 1.16, written by Peter Selinger 2001-2019
</metadata>
<g transform="translate(0.000000,50.000000) scale(0.009766,-0.009766)"
fill="#000000" stroke="none">
<path d="M2300 5113 c-490 -50 -969 -247 -1354 -558 -120 -96 -343 -326 -433
-446 -251 -334 -408 -701 -484 -1126 -30 -168 -38 -544 -15 -733 99 -807 565
-1509 1276 -1920 179 -104 452 -215 501 -205 58 13 80 93 37 132 -13 11 -63
35 -113 53 -197 72 -416 192 -600 329 -127 95 -379 347 -473 473 -323 433
-482 909 -482 1441 0 543 155 1015 476 1447 100 135 349 384 484 484 348 259
739 414 1173 466 131 16 433 13 572 -5 361 -47 721 -181 1014 -377 93 -62 130
-70 165 -35 34 34 35 85 4 114 -38 35 -187 128 -298 186 -267 141 -566 234
-880 273 -104 13 -470 17 -570 7z"/>
<path d="M2818 4770 c-9 -6 -32 -32 -52 -60 l-36 -50 -98 0 c-67 0 -104 -4
-117 -14 -11 -7 -38 -50 -60 -95 -21 -44 -42 -81 -45 -81 -3 0 -24 37 -45 81
-43 88 -64 109 -108 109 -35 0 -77 -40 -77 -75 0 -14 38 -102 85 -195 73 -145
89 -170 115 -179 21 -7 39 -7 60 0 25 9 40 32 100 150 l71 139 54 0 54 0 26
-82 c48 -153 43 -200 -22 -183 -71 17 -88 17 -116 -5 -31 -25 -37 -72 -12
-106 37 -54 161 -72 234 -34 117 59 136 164 70 376 l-32 103 36 53 c21 30 37
65 37 81 0 56 -72 96 -122 67z"/>
<path d="M1580 4565 c-63 -36 -121 -73 -127 -82 -20 -26 -16 -80 8 -104 18
-18 30 -21 71 -17 33 4 48 2 45 -6 -3 -6 -10 -37 -17 -68 -12 -54 -15 -58 -42
-58 -18 0 -39 -10 -55 -26 -21 -21 -24 -32 -20 -62 4 -22 16 -45 31 -57 l26
-20 -30 -110 c-18 -66 -28 -121 -24 -137 12 -57 92 -78 131 -35 13 13 33 67
50 132 29 109 29 109 63 116 41 9 70 41 70 78 0 32 -25 71 -46 71 -8 0 -14 3
-14 6 0 6 26 104 36 132 2 9 12 4 28 -14 28 -34 84 -38 116 -9 36 33 27 79
-41 195 -71 123 -75 128 -114 135 -24 5 -52 -7 -145 -60z"/>
<path d="M3314 4590 c-26 -10 -54 -48 -54 -72 0 -25 94 -211 115 -228 13 -11
40 -14 99 -12 l82 3 29 -61 c42 -89 52 -95 143 -92 173 5 212 21 212 86 0 19
-8 44 -18 57 -17 21 -26 22 -105 20 l-86 -2 -35 70 c-20 38 -41 73 -47 77 -7
4 -50 6 -95 5 l-83 -2 -35 70 c-20 38 -39 71 -43 74 -20 11 -60 14 -79 7z"/>
<path d="M4232 4433 c-21 -8 -44 -63 -37 -90 3 -14 52 -73 109 -133 331 -346
548 -782 632 -1270 22 -129 30 -487 14 -633 -47 -439 -205 -837 -472 -1195
-93 -125 -345 -377 -470 -470 -348 -260 -717 -410 -1153 -468 -205 -27 -577
-15 -756 25 -75 17 -119 -11 -119 -76 0 -65 36 -80 262 -108 160 -20 476 -20
638 0 350 43 712 168 1005 347 343 209 664 530 873 873 179 293 304 655 347
1005 20 163 20 477 0 640 -69 556 -336 1107 -718 1478 -84 82 -109 94 -155 75z"/>
<path d="M3164 4330 c-26 -10 -54 -48 -54 -72 0 -25 94 -211 115 -228 13 -11
40 -14 99 -12 l82 3 29 -61 c42 -89 52 -95 143 -92 173 5 212 21 212 86 0 19
-8 44 -18 57 -17 21 -26 22 -105 20 l-86 -2 -36 71 c-21 43 -44 74 -57 79 -12
4 -54 6 -94 3 l-72 -5 -36 71 c-20 39 -39 72 -43 75 -20 11 -60 14 -79 7z"/>
<path d="M888 3976 c-25 -18 -36 -56 -27 -88 4 -15 61 -89 127 -165 65 -76
124 -148 131 -161 13 -24 6 -62 -11 -62 -6 0 -63 29 -127 65 -151 84 -230 99
-306 57 -59 -31 -114 -128 -136 -239 -11 -53 -10 -64 3 -85 20 -30 399 -248
431 -248 42 0 77 36 77 79 0 49 -11 58 -190 161 -80 45 -147 84 -148 86 -9 6
11 65 29 88 18 22 23 24 52 14 17 -6 79 -38 137 -71 86 -50 115 -62 161 -65
71 -5 128 22 166 80 24 36 28 52 28 112 -1 46 -6 82 -17 101 -22 41 -273 332
-297 345 -26 14 -62 12 -83 -4z"/>
<path d="M2324 3904 c-263 -44 -538 -187 -729 -379 -141 -140 -267 -343 -329
-530 -42 -124 -44 -158 -13 -189 31 -31 75 -34 105 -8 12 9 36 64 56 126 142
429 491 738 930 821 91 18 310 21 396 6 326 -56 596 -221 790 -481 269 -363
307 -858 97 -1265 -80 -154 -210 -305 -357 -415 -417 -309 -1003 -309 -1420 0
-291 217 -463 530 -490 893 -7 93 -11 112 -31 133 -28 30 -77 32 -107 4 -20
-19 -22 -31 -22 -113 0 -225 88 -501 223 -702 210 -312 546 -531 907 -590 122
-19 338 -19 460 0 419 68 795 347 989 733 96 191 141 386 141 612 0 226 -45
421 -141 612 -194 386 -570 665 -989 733 -117 18 -353 18 -466 -1z"/>
<path d="M4258 3908 c-9 -7 -28 -39 -44 -70 -15 -32 -36 -66 -47 -75 -19 -17
-20 -17 -31 1 -6 10 -22 32 -34 47 -31 38 -82 40 -117 4 -30 -29 -31 -53 -5
-106 12 -22 18 -44 15 -49 -3 -6 -48 -10 -100 -10 -89 0 -95 -1 -114 -26 -28
-35 -26 -67 3 -101 24 -27 27 -28 128 -28 56 0 121 4 143 8 l40 8 28 -51 29
-51 -47 -50 c-48 -52 -105 -158 -105 -197 0 -35 16 -58 50 -72 50 -21 84 1
120 74 16 34 38 70 48 80 19 16 20 15 40 -18 28 -48 64 -69 102 -61 59 13 78
79 39 142 -12 19 -18 37 -14 41 4 4 49 7 100 7 111 0 135 14 135 76 0 50 -32
75 -108 85 -51 6 -162 -5 -203 -21 -9 -3 -25 13 -46 47 l-31 52 48 53 c90 98
125 208 80 253 -23 23 -78 27 -102 8z"/>
<path d="M2500 3598 c-19 -20 -20 -34 -20 -195 l0 -173 -27 -5 c-38 -8 -125
-32 -143 -39 -11 -4 -34 28 -90 126 -100 174 -103 178 -151 178 -26 0 -46 -7
-59 -20 -36 -36 -26 -75 60 -224 44 -76 80 -139 80 -141 0 -4 -131 -135 -135
-135 -2 0 -65 36 -141 80 -149 86 -188 96 -224 60 -13 -13 -20 -33 -20 -59 0
-48 3 -51 179 -151 97 -56 129 -79 125 -90 -4 -8 -16 -50 -27 -92 l-20 -78
-172 0 c-158 0 -173 -2 -193 -20 -33 -31 -30 -92 4 -119 25 -19 40 -21 194
-21 l167 0 20 -77 c11 -43 23 -85 27 -93 4 -11 -28 -34 -126 -90 -174 -100
-178 -103 -178 -151 0 -26 7 -46 20 -59 36 -36 75 -26 224 60 76 44 139 80
141 80 4 0 135 -131 135 -135 0 -2 -36 -65 -80 -141 -86 -149 -96 -188 -60
-224 13 -13 33 -20 59 -20 48 0 51 4 151 178 56 98 79 130 90 126 18 -7 105
-31 143 -39 l27 -5 0 -173 c0 -168 1 -174 23 -195 34 -32 89 -30 116 4 19 25
21 40 21 195 l0 169 28 5 c37 8 124 32 142 39 11 4 34 -28 90 -126 100 -174
103 -178 151 -178 26 0 46 7 59 20 36 36 26 75 -60 224 -44 76 -80 139 -80
141 0 4 131 135 135 135 2 0 65 -36 141 -80 149 -86 188 -96 224 -60 13 13 20
33 20 59 0 48 -4 51 -178 151 -98 56 -130 79 -126 90 7 18 31 105 39 143 l5
27 169 0 c155 0 170 2 195 21 35 27 36 86 3 117 -22 21 -32 22 -195 22 l-172
0 -5 28 c-8 37 -32 124 -39 142 -4 11 28 35 125 90 176 100 179 103 179 151 0
26 -7 46 -20 59 -38 38 -73 27 -260 -81 -96 -55 -182 -107 -192 -116 -30 -27
-30 -60 1 -131 41 -95 51 -137 51 -223 0 -278 -231 -509 -510 -509 -280 0
-510 230 -510 510 0 279 231 510 509 510 86 0 128 -10 223 -51 71 -31 104 -31
131 -1 9 10 61 96 116 192 108 187 119 222 81 260 -13 13 -33 20 -59 20 -48 0
-51 -3 -151 -179 -55 -97 -79 -129 -90 -125 -18 7 -105 31 -142 39 l-28 5 0
173 c0 168 -1 174 -23 195 -31 30 -89 30 -117 0z"/>
<path d="M832 2940 c-22 -21 -22 -24 -22 -370 l0 -349 26 -20 c34 -27 64 -27
98 0 l26 20 0 349 c0 346 0 349 -22 370 -12 11 -35 20 -53 20 -18 0 -41 -9
-53 -20z"/>
<path d="M532 2920 c-18 -17 -22 -32 -22 -79 0 -59 0 -59 -43 -84 -24 -14 -57
-45 -73 -68 -27 -39 -29 -49 -29 -129 0 -80 2 -90 29 -129 16 -23 49 -54 73
-68 43 -25 43 -25 43 -83 0 -51 3 -61 26 -79 15 -12 37 -21 49 -21 12 0 34 9
49 21 25 20 26 23 26 133 0 105 -2 114 -23 134 -13 12 -35 22 -50 22 -59 0
-89 78 -47 120 11 11 31 20 44 20 13 0 35 9 50 21 25 20 26 23 26 133 0 105
-2 114 -23 134 -29 28 -76 28 -105 2z"/>
<path d="M4476 2919 c-37 -29 -37 -89 0 -118 15 -12 37 -21 50 -21 33 0 64
-34 64 -70 0 -17 -9 -39 -20 -50 -18 -18 -33 -20 -184 -20 -150 0 -165 -2
-190 -21 -20 -16 -26 -29 -26 -59 0 -30 6 -43 26 -59 25 -19 40 -21 190 -21
151 0 166 -2 184 -20 41 -41 12 -120 -44 -120 -13 0 -35 -9 -50 -21 -20 -16
-26 -29 -26 -59 0 -127 213 -92 280 45 30 61 30 148 0 210 l-22 45 22 45 c30
62 30 149 0 210 -48 100 -187 157 -254 104z"/>
<path d="M920 2050 c-11 -11 -41 -65 -66 -120 l-46 -99 -132 6 -132 6 -22 -28
c-28 -36 -28 -67 2 -102 23 -26 30 -28 116 -32 80 -3 91 -5 84 -20 -20 -48
-35 -142 -31 -193 7 -80 40 -141 117 -220 51 -53 72 -68 94 -68 19 0 94 37
205 101 234 135 241 141 241 188 0 45 -33 81 -74 81 -17 0 -92 -37 -192 -95
l-164 -94 -24 32 c-54 72 -58 107 -23 202 l22 60 131 0 c153 0 174 9 174 76 0
45 -36 79 -84 79 -17 0 -54 3 -83 6 l-52 7 35 68 c42 85 44 129 8 158 -34 27
-78 27 -104 1z"/>
<path d="M4012 1932 c-111 -40 -182 -144 -182 -267 0 -165 118 -280 285 -278
l71 1 18 -44 c25 -60 108 -134 150 -134 42 0 73 23 81 59 8 37 -2 56 -56 109
-40 40 -41 44 -37 92 9 89 79 134 162 105 58 -21 83 -19 111 10 27 26 32 63
14 97 -18 34 -95 61 -176 61 l-73 0 -10 32 c-6 18 -27 51 -46 74 -75 87 -204
121 -312 83z m149 -157 c36 -19 69 -70 69 -108 0 -83 -89 -145 -163 -113 -78
32 -103 124 -50 186 42 51 90 62 144 35z"/>
<path d="M1553 1400 c-27 -11 -43 -40 -43 -77 0 -40 18 -60 65 -76 77 -27 58
-57 -89 -141 -67 -39 -122 -91 -154 -145 -23 -40 -27 -57 -27 -126 0 -63 5
-89 22 -121 36 -67 70 -101 135 -133 49 -25 74 -31 126 -31 36 0 82 5 104 12
58 17 127 83 158 151 19 42 35 62 60 75 71 36 62 112 -20 156 -88 48 -124 28
-160 -91 -31 -101 -69 -143 -130 -143 -117 0 -181 128 -102 202 15 15 65 50
112 78 104 64 124 81 151 137 30 61 24 147 -14 196 -42 55 -146 96 -194 77z"/>
<path d="M3568 1324 c-16 -8 -28 -18 -28 -23 0 -19 -89 -107 -144 -143 -62
-40 -168 -78 -217 -78 -72 0 -115 -60 -85 -118 18 -35 33 -42 90 -42 l42 0 66
-114 66 -114 -19 -28 c-25 -39 -25 -98 1 -124 30 -30 86 -27 113 6 68 82 107
121 152 149 63 40 144 71 215 80 85 11 123 63 90 125 -12 23 -70 43 -103 35
-23 -6 -29 2 -92 111 l-67 117 21 37 c33 60 27 101 -20 125 -35 18 -47 18 -81
-1z m42 -429 c-1 -9 -131 -89 -135 -83 -1 2 -21 37 -44 78 -33 58 -40 77 -29
83 7 4 38 22 68 40 l55 33 42 -71 c24 -38 43 -74 43 -80z"/>
<path d="M2449 1016 c-159 -46 -242 -155 -209 -277 24 -90 88 -139 179 -139
42 0 53 4 70 26 12 15 21 37 21 49 0 34 -36 72 -74 79 -61 12 -57 54 8 89 34
18 57 22 141 22 85 0 106 -3 142 -22 52 -28 83 -29 117 -2 20 16 26 29 26 58
0 47 -27 74 -101 103 -68 26 -250 34 -320 14z"/>
<path d="M2631 724 c-12 -15 -21 -37 -21 -49 0 -34 36 -72 74 -79 59 -11 56
-51 -7 -87 -37 -21 -55 -24 -142 -24 -85 0 -106 3 -142 23 -52 27 -83 28 -117
1 -35 -28 -36 -86 -2 -118 41 -38 123 -63 227 -69 114 -5 179 7 263 51 193
102 147 377 -63 377 -42 0 -53 -4 -70 -26z"/>
</g>
</svg>
