<?xml version="1.0" standalone="no"?>
<!DOCTYPE svg PUBLIC "-//W3C//DTD SVG 20010904//EN"
 "http://www.w3.org/TR/2001/REC-SVG-20010904/DTD/svg10.dtd">
<svg version="1.0" xmlns="http://www.w3.org/2000/svg"
 width="512.000000pt" height="512.000000pt" viewBox="0 0 512.000000 512.000000"
 preserveAspectRatio="xMidYMid meet">
<metadata>
Created by potrace 1.10, written by Peter Selinger 2001-2011
</metadata>
<g transform="translate(0.000000,512.000000) scale(0.100000,-0.100000)"
fill="#000000" stroke="none">
<path d="M692 5100 c-108 -29 -188 -75 -269 -156 -107 -105 -132 -175 -77
-211 38 -24 67 -9 118 60 138 188 373 247 577 145 215 -107 309 -386 204 -601
-41 -82 -50 -87 -74 -38 -25 48 -72 85 -126 100 -52 14 -363 14 -419 0 -55
-14 -111 -60 -128 -104 -6 -20 -17 -34 -23 -32 -18 6 -75 131 -87 192 -13 73
-31 95 -74 95 -48 0 -68 -34 -60 -97 34 -241 219 -440 458 -493 l56 -13 4 -76
c2 -60 8 -83 26 -109 46 -63 62 -67 322 -70 l235 -4 20 -31 c11 -17 39 -45 62
-62 41 -29 42 -32 42 -87 1 -51 -1 -58 -18 -58 -50 0 -182 -53 -248 -99 -112
-79 -180 -169 -225 -301 -33 -93 -33 -267 0 -360 46 -134 119 -230 233 -306
66 -44 194 -94 240 -94 18 0 20 -6 17 -63 l-3 -62 -300 -5 c-338 -6 -335 -5
-375 -86 -17 -34 -20 -60 -20 -160 l0 -120 -70 -16 c-113 -27 -195 -73 -281
-158 -79 -78 -131 -167 -160 -270 -19 -68 -16 -224 5 -294 59 -196 206 -351
389 -408 101 -32 253 -32 355 0 265 83 441 361 403 636 -20 144 -65 202 -125
162 -35 -22 -39 -47 -21 -108 20 -67 20 -198 1 -263 -9 -27 -30 -72 -47 -100
-31 -49 -32 -49 -41 -25 -16 44 -60 92 -102 111 -36 16 -67 19 -246 19 -257 0
-288 -11 -339 -115 l-19 -39 -31 49 c-49 77 -64 142 -59 255 3 88 7 104 40
171 87 176 245 268 440 257 81 -5 99 -10 172 -47 44 -22 90 -41 102 -41 51 0
78 59 45 101 -26 34 -131 85 -214 105 l-68 17 3 116 3 116 575 2 575 3 16 -33
c8 -17 36 -45 62 -62 45 -30 46 -31 46 -86 l1 -56 -57 -13 c-169 -37 -325
-158 -405 -313 -31 -61 -58 -184 -58 -261 1 -335 293 -608 624 -583 154 12
265 64 377 176 115 115 169 245 169 406 0 275 -194 519 -457 574 l-63 14 0 58
c0 48 3 59 19 64 22 7 101 89 101 105 0 7 185 9 573 8 l572 -3 3 -117 3 -117
-38 -7 c-132 -24 -277 -113 -354 -218 -34 -46 -37 -78 -9 -106 36 -36 64 -26
135 48 108 114 214 157 365 150 74 -3 97 -9 164 -41 245 -116 336 -414 197
-644 -30 -49 -37 -52 -45 -19 -9 37 -56 87 -101 107 -35 16 -68 19 -246 19
-196 0 -208 -1 -250 -23 -31 -16 -54 -39 -76 -76 l-32 -53 -24 39 c-38 62 -58
123 -64 198 -3 38 -10 78 -15 88 -23 45 -102 38 -115 -11 -10 -43 4 -175 26
-233 28 -75 87 -163 147 -222 225 -221 589 -220 814 2 188 186 231 437 115
677 -75 155 -216 269 -387 310 l-66 16 -4 132 c-3 127 -4 134 -31 169 -15 20
-38 42 -50 49 -16 9 -107 14 -322 18 l-300 5 0 59 0 58 73 19 c170 43 308 152
382 302 66 134 83 250 55 382 -18 85 -29 114 -69 182 -39 67 -75 85 -114 56
-15 -11 -28 -29 -30 -40 -2 -10 15 -54 37 -97 81 -159 74 -336 -20 -468 l-21
-30 -18 39 c-22 49 -80 100 -122 108 -18 3 -128 5 -245 3 l-211 -3 -38 -31
c-21 -17 -48 -50 -60 -74 l-22 -43 -15 24 c-9 13 -29 51 -44 84 -26 55 -28 70
-28 175 0 109 2 119 32 183 59 124 140 199 268 247 74 27 206 30 275 6 59 -21
76 -20 100 4 25 25 26 72 3 93 -33 29 -133 51 -233 51 -168 0 -307 -61 -426
-186 -151 -160 -198 -385 -124 -595 63 -180 233 -332 418 -373 l62 -14 0 -63
0 -63 -220 0 -220 0 -24 39 c-83 131 -269 129 -348 -5 l-20 -34 -222 2 -221 3
-3 60 -3 60 73 17 c110 27 193 73 273 153 236 235 236 595 0 830 -80 80 -162
126 -272 153 l-73 17 0 56 c0 53 2 57 37 80 21 13 49 41 62 62 l24 37 211 0
c121 0 228 5 251 11 80 22 115 76 115 176 l0 69 73 17 c223 52 395 230 443
457 78 368 -231 721 -607 697 -385 -25 -642 -398 -525 -762 64 -201 231 -352
438 -396 l49 -11 -3 -56 -3 -57 -222 -3 -222 -2 -15 27 c-46 89 -159 126 -251
84 -39 -17 -105 -81 -105 -102 0 -6 -83 -8 -227 -7 l-228 3 -3 56 -3 56 58 12
c172 37 328 160 402 314 46 97 61 160 61 265 0 157 -55 287 -170 403 -115 117
-226 167 -390 175 -74 3 -111 0 -168 -16z m1639 -120 c183 -35 326 -177 365
-362 23 -111 -1 -239 -62 -331 l-25 -38 -26 50 c-18 38 -37 59 -71 79 -46 26
-51 27 -238 30 -120 2 -207 -1 -233 -8 -53 -14 -109 -63 -131 -114 l-17 -40
-29 49 c-67 114 -83 252 -45 374 68 218 290 353 512 311z m-1289 -727 c28 -25
25 -108 -4 -127 -85 -54 -268 -61 -370 -14 l-58 27 0 47 c0 83 4 84 223 84
163 0 193 -2 209 -17z m1418 2 c7 -9 15 -38 18 -65 l5 -50 -59 -27 c-53 -25
-70 -28 -169 -28 -91 1 -120 5 -167 24 l-58 22 0 50 c0 92 -7 89 219 89 166 0
201 -2 211 -15z m-873 -447 c60 -56 -13 -149 -82 -104 -20 13 -25 25 -25 56 0
64 60 92 107 48z m78 -500 c103 -26 219 -116 275 -213 79 -138 79 -313 -1
-452 -17 -29 -32 -53 -34 -53 -2 0 -13 21 -26 46 -15 31 -36 56 -67 75 l-46
29 -221 0 -221 0 -46 -29 c-31 -20 -52 -44 -68 -75 l-22 -47 -25 37 c-34 49
-62 132 -70 204 -18 178 86 364 251 445 103 51 207 62 321 33z m87 -715 c13
-12 18 -30 18 -68 l0 -53 -48 -20 c-109 -47 -245 -47 -354 0 -48 20 -48 21
-48 67 0 26 7 56 16 69 15 21 20 22 206 22 164 0 194 -2 210 -17z m1404 9 c39
-26 46 -114 12 -136 -86 -54 -248 -65 -358 -24 l-65 25 -3 53 c-5 89 -2 90
217 90 102 0 191 -4 197 -8z m-853 -460 c40 -35 6 -112 -50 -112 -37 0 -63 27
-63 64 0 68 61 94 113 48z m86 -501 c125 -39 219 -122 278 -247 63 -133 56
-288 -21 -419 -26 -43 -46 -52 -46 -19 0 22 -71 95 -107 111 -24 9 -88 13
-238 13 -185 0 -210 -2 -244 -20 -44 -22 -88 -70 -97 -106 -9 -37 -25 -25 -61
46 -70 139 -70 280 1 418 98 191 329 287 535 223z m-1351 -707 c20 -14 23 -23
20 -72 l-3 -57 -60 -24 c-86 -35 -224 -35 -310 0 l-60 24 -3 57 c-4 85 2 88
218 88 144 0 180 -3 198 -16z m1422 -4 c15 -15 20 -33 20 -70 0 -51 0 -51 -45
-70 -25 -11 -75 -25 -111 -32 -76 -14 -170 -2 -247 31 l-47 20 0 51 c0 37 5
55 20 70 19 19 33 20 205 20 172 0 186 -1 205 -20z m1410 -7 c16 -20 20 -38
18 -71 l-3 -45 -64 -24 c-88 -33 -170 -39 -254 -19 -37 9 -81 23 -97 31 -28
14 -30 20 -30 70 0 83 6 85 226 85 l183 0 21 -27z"/>
<path d="M2235 4885 c-5 -2 -22 -6 -37 -9 -35 -8 -94 -59 -115 -100 -9 -17
-16 -54 -16 -82 0 -169 204 -253 323 -134 110 110 46 299 -110 323 -19 3 -39
4 -45 2z m65 -150 c7 -8 13 -26 13 -40 0 -36 -21 -55 -57 -55 -40 0 -56 16
-56 55 0 17 5 36 12 43 17 17 73 15 88 -3z"/>
<path d="M1462 3199 c-67 -33 -97 -86 -97 -170 0 -60 3 -71 31 -106 86 -108
221 -108 308 0 28 35 31 46 31 106 0 57 -4 74 -28 110 -51 77 -158 103 -245
60z m130 -126 c10 -9 18 -27 18 -40 0 -28 -33 -63 -60 -63 -11 0 -29 9 -40 20
-55 55 24 135 82 83z"/>
<path d="M2179 1540 c-184 -97 -120 -360 87 -360 163 0 245 207 128 323 -58
58 -147 73 -215 37z m121 -130 c11 -11 20 -28 20 -38 0 -29 -29 -62 -56 -62
-29 0 -64 32 -64 60 0 11 9 29 20 40 11 11 29 20 40 20 11 0 29 -9 40 -20z"/>
<path d="M781 4875 c-140 -44 -176 -232 -62 -328 30 -25 87 -47 121 -47 34 0
91 22 120 47 117 98 80 285 -64 328 -58 18 -58 18 -115 0z m101 -142 c22 -20
23 -51 1 -75 -32 -36 -103 -12 -103 35 0 49 64 75 102 40z"/>
<path d="M2884 3204 c-107 -52 -141 -196 -69 -290 31 -40 100 -74 151 -74 122
1 216 122 184 239 -13 50 -63 109 -107 127 -43 18 -120 17 -159 -2z m117 -124
c30 -17 26 -75 -7 -97 -24 -15 -29 -15 -53 -2 -18 10 -27 24 -29 46 -5 52 40
79 89 53z"/>
<path d="M770 1544 c-106 -46 -149 -175 -90 -271 68 -113 228 -125 313 -23
125 149 -44 372 -223 294z m112 -131 c37 -33 11 -103 -38 -103 -24 0 -53 23
-55 43 -6 62 50 99 93 60z"/>
<path d="M3601 1549 c-84 -33 -125 -101 -119 -194 3 -49 10 -70 31 -99 69 -90
201 -103 281 -28 105 98 76 261 -56 317 -41 17 -100 19 -137 4z m108 -145 c12
-15 21 -33 21 -40 0 -21 -37 -54 -62 -54 -53 0 -79 74 -36 104 32 23 54 20 77
-10z"/>
</g>
</svg>
