<?xml version="1.0" encoding="utf-8"?>
<!-- Generator: Adobe Illustrator 26.0.0, SVG Export Plug-In . SVG Version: 6.00 Build 0)  -->
<svg version="1.1" id="Capa_1" xmlns="http://www.w3.org/2000/svg" xmlns:xlink="http://www.w3.org/1999/xlink" x="0px" y="0px"
	 viewBox="0 0 149.77 163.33" style="enable-background:new 0 0 149.77 163.33;" xml:space="preserve">
<style type="text/css">
	.st0{fill:#579A62;}
	.st1{fill-rule:evenodd;clip-rule:evenodd;fill:#579A62;}
</style>
<g>
	<path class="st0" d="M13.49,142.05c1.96-3.58,3.42-6.89,2.97-0.84c-0.06,0.9-0.11,1.85-0.11,2.74c-0.06,0.39-0.17,0.62-0.56,0.78
		C11.58,147.48,10.18,146.36,13.49,142.05z M24.12,140.59c0-0.39,0-0.78,0.06-1.18c0.17-0.95,0.22-1.9,0.56-2.8
		c0.39-1.18,0.67-2.35,0.67-3.58c0-0.22,0.06-0.45,0.06-0.62c0.28-1.62,0.5-3.19,0.73-4.82c0.22-1.23,0.34-2.46,0.06-3.7
		c-0.06-0.28-0.17-0.62-0.34-0.9c-0.39-0.5-0.84-0.95-1.29-1.4c-0.22-0.22-0.5-0.34-0.78-0.39l-2.52-0.62
		c-0.62-0.17-0.78-0.11-1.12,0.5c-0.9,1.85-1.74,3.81-2.24,5.82c-0.22,1.18-0.45,2.35-0.56,3.58c-0.06,1.01-0.39,1.9-1.01,2.8
		l-4.31,6.78c-1.23,1.85-2.3,3.86-3.81,5.54c-0.11,0.11-0.17,0.28-0.28,0.45l-1.79,2.07c-0.11,0.11-0.39,0.17-0.5,0.11
		c-0.56-0.22-1.12-0.45-1.62-0.73c-0.34-0.22-0.67-0.39-1.06-0.22c-0.11,0.39,0,0.67,0.28,0.95l1.12,0.84l0.5,0.45
		c-0.73,0.95,0.17,0.06-0.62,0.84l-1.51,1.57c-0.95,1.12-1.9,2.3-2.8,3.47c1.01,1.4-0.22,3.19,2.63,2.74
		c1.18,0.39-0.45-0.73,0.84-0.84c0.34-0.06,0.5-0.17,0.73-0.39c0.95-1.57,2.18-3.02,3.14-4.7c0.45-0.73,1.12-1.62,2.07-1.96
		c0.95-0.22,1.96-0.5,2.86-0.78c1.18-0.45,2.35-0.78,3.36-1.57c0.17-0.11,0.39-0.17,0.62-0.28l0.17,0.9
		c0.17,2.46,0.34,4.87,1.06,7.22l0.34,1.34c0,0.17,0,0.5-0.06,0.5c-0.34,0.17-0.22,0.45-0.22,0.67c0.34,1.4,0.84,2.74,1.62,3.98
		c0.22,0.34,0.56,0.56,0.9,0.84c0.22,0.17,0.56,0.34,0.95,0.22c0-0.67,0.56-0.45,1.01-0.5c0-0.11,0-0.22,0.06-0.28l0.17-0.22
		l0.5,0.5c0.06-0.5,0.11-0.95,0.11-1.4c0-0.62-0.06-1.23-0.06-1.85c-0.06-0.9-0.11-1.74-0.28-2.63c-0.17-1.12-0.28-2.24,0-3.36
		c0.06-0.39,0.11-0.73,0.11-1.12c0.06-1.46,0.06-2.97,0.06-4.37c0.11-0.11,0.17-0.17,0.22-0.17c0-0.06,0.06-0.06,0.11-0.11
		c0.39-0.22,0.5-0.9,0.17-0.95c-0.11,0.11-0.17,0.28-0.39,0.5c0-0.39,0-0.67,0.28-0.78c0.45-0.17,0.45-0.5,0.5-0.9
		c0-0.5,0.11-1.06,0.11-1.57c0-0.34,0.17-0.56,0.45-0.73c1.51-0.9,2.91-1.9,4.48-2.69c0.28-0.11,0.62-0.22,0.73-0.56
		c-0.39-0.17-0.67-0.39-1.01-0.5c-0.22-0.11-0.5-0.17-0.73-0.11c-0.78,0.06-1.51,0.28-2.24,0.67l-1.12,0.5L24.12,140.59z"/>
	<path class="st0" d="M32.8,149.1c0.62-2.13,1.96-3.98,2.69-6.33c0.28-1.18,0.39-0.34,0.67-1.46c0.34-1.06,0.22-1.74-0.28-2.63
		c-0.56-0.67-1.12-1.18-1.51-1.9c-0.45-0.39-0.78-0.5-1.12-0.56c-0.5-0.11-1.01-0.22-1.4-0.22c-0.56-0.11-0.78,0-1.01,0.73
		c-0.45,0.9-0.78,1.79-1.18,2.8c-0.11,0.39-0.34,0.67-0.39,1.06c-0.78,2.18-0.56,1.85-0.95,4.03c-0.45,1.51-0.22,1.4-0.5,3.02
		c-0.11,1.46-0.17,2.91-0.22,4.37c0,0.95,0,1.96,0.17,2.91c0.22,1.12,0.67,1.96,1.57,2.18c0.11,0.11,0.22,0.22,0.34,0.11
		c0.9,0.22,1.68,0.28,2.35-0.67c0.11-0.11,0.28-0.17,0.28-0.28c0.34-0.28,1.74-2.97,1.85-3.3c0.17-0.45,0.39-0.9,0.5-1.29
		c0.39-1.23,1.01-2.3,1.51-3.47c0.34-0.78,0.73-1.46,1.01-2.24c0.34-1.06,0.78-1.96,1.29-2.91c0.06-0.17,0.22-0.34,0.17-0.56
		c0.06-0.39,0.17-0.73,0.34-1.01l0.78-1.4l0.22-0.28c0-0.11,0.11-0.06,0.17-0.06c0.06,0.22,0.06,0.39-0.06,0.62l-0.17,1.01
		c-0.06,0.45-0.06,0.9-0.17,1.4c-0.17,1.06-0.17,2.18,0.17,3.19c0.28,0.78,0.78,1.4,1.46,1.57c0.39,0.17,0.78,0.22,1.18,0.45
		c0.11,0.11,0.28,0.11,0.45,0c0.22-0.17,0.45-0.22,0.5-0.22c0.22,0,0.39-0.06,0.62-0.28l0.17-0.11c0-0.06,0.11-0.11,0.17-0.17
		l0.17-0.17c0.17-0.06,0.28-0.22,0.34-0.39l0.17-0.28c0.17-0.11,0.22-0.28,0.22-0.45c-0.22-0.28-0.39-0.28-0.56,0
		c-0.22,0.28-0.45,0.45-0.67,0.62l-0.22,0.28c-0.11,0.11-0.5-0.06-0.62,0.06c-0.06,0.06,0-0.17-0.28-0.34c0.06-0.5,0-1.01,0-1.51
		c0-0.73,0.06-1.51-0.06-2.24l-0.39-2.3v-0.22c-0.34-0.73-0.73-1.23-1.4-1.23c-0.34,0-0.67,0.06-1.06,0.06
		c-0.34,0.06-0.67,0.28-0.9,0.67c-0.22,0.45-0.56,0.95-0.9,1.4c-0.28,0.56-0.62,1.06-0.95,1.57c-0.39,0.67-2.35,4.65-2.58,5.49
		C34.54,149.16,31.96,151.79,32.8,149.1z"/>
	<path class="st0" d="M55.48,148.54c0.17-0.28,0.39-0.67,0.5-0.95c0.28-0.45,0.5-0.95,0.84-1.4c0.34-0.56,0.78-1.01,1.29-1.51
		c0.45-0.5,0.78-1.06,1.06-1.74c0.22-0.5,0.5-0.84,0.84-1.23c0.56-0.45,1.12-1.01,1.68-1.57c0.22-0.17,0.39-0.28,0.5-0.45
		c0.22-0.22,0.45-0.22,0.62-0.06c0.11,0.34-0.06,0.62-0.28,0.84c-0.39,0.78-0.9,1.46-1.29,2.18c-1.62,2.35-2.97,4.82-3.86,7.62
		c-0.22,0.62-0.34,1.18-0.34,1.79c-0.06,0.78,0.11,1.29,0.5,1.68c0.34,0.39,0.73,0.67,1.18,0.73c0.95,0.11,1.96-0.17,2.86-0.9
		c0.22-0.22,0.39-0.45,0.56-0.67c0.5-0.56,1.18-0.9,1.51-1.57c0.11-0.17,0.22-0.17,0.28-0.28c0.67-0.5,1.29-0.95,1.79-1.57
		c0.11-0.22,0.28-0.28,0.39-0.39l1.34-1.12c0.28-0.22,0.56-0.39,0.84-0.22c0.22-0.28,0.34-0.56,0.56-0.78
		c0.34-0.5,0.34-0.5,0.39-1.06c0.22-0.17,0.5-0.28,0.78-0.39c0.28-0.06,0.5-0.45,0.84-0.5c0,0.17,0.06,0.22,0,0.34
		c0,0.17-0.06,0.39-0.11,0.56c-0.5,1.34-0.84,2.69-1.12,4.09c-0.22,0.84-0.22,1.68,0.06,2.35c0.34,0.78,1.23,1.4,1.79,1.9
		c0.28,0.22,1.62,0.34,1.9,0.34c0.62,0,2.97-1.68,3.25-2.3c0.11-0.06,0.28-0.11,0.28-0.28c0.39-0.39,0.73-0.78,1.23-1.12
		c0.06-0.11,0.22-0.28,0.22-0.5c0.28-0.67,0.62-1.23,0.95-1.85c0.11-0.11,0.11-0.28,0.22-0.28c0.17,0.11,0.45-1.06,0.45-0.84
		c0.11-0.95-0.17-0.45,0-1.29c0.06-0.06,0-0.06-0.11-0.22c-0.17,0.17-0.28,0.45-0.34,0.73c-0.78,1.34-1.62,2.63-2.63,3.75
		c-0.56,0.73-3.47,2.8-4.31,2.63c-0.28-0.11-0.39-0.28-0.39-0.67c-0.06-0.62-0.06-1.18,0-1.79c0.11-0.62,0.22-1.29,0.28-1.96
		c0.22-0.28,0-0.73,0.34-0.9c0.17-0.45,0.28-0.84,0.28-1.23c-0.06-0.45-0.06-0.9,0-1.4c-0.22-0.28-0.39-0.56-0.67-0.67
		c-0.39-0.17-0.5-0.56-0.78-0.78c-0.22-0.22-0.5-0.28-0.84,0c-0.17,0.17-0.28,0.28-0.45,0.34c-1.01,0.56-1.96,1.34-2.86,2.18
		c-0.95,1.01-1.96,1.9-3.08,2.52c-0.06,0.06-0.22,0.17-0.39,0.22c0.11-0.62,0.34-1.12,0.45-1.62c0.5-1.18,0.84-2.35,1.23-3.64
		c0.17-0.62,0.17-1.18,0.06-1.74c-0.06-0.45-0.17-0.78-0.28-1.18c-0.17-0.45-0.34-0.78-0.62-1.01c-0.45-0.39-0.84-0.9-1.29-1.34
		c-0.11-0.11-0.28-0.17-0.5-0.28c-0.39-0.06-0.9,0-1.4,0.22c-0.17,0.06-0.39,0.22-0.62,0.45c-1.18,1.29-2.35,2.58-3.42,4.03
		c-0.34,0.5-0.67,0.84-1.06,1.29c-0.95,1.12-1.85,2.24-2.86,3.36l-1.74,2.02c-0.06,0.06-0.17,0.06-0.28,0.11
		c0.22-0.45,0.34-0.9,0.39-1.29c0.11-0.11,0.11-0.17,0.11-0.17c0-0.06,0.06-0.11,0.06-0.11c0.5-1.12,0.84-2.24,1.18-3.36l0.22-0.84
		c0.22-0.45,0.34-0.95,0.56-1.4c0.28-0.56,0.34-1.23,0.22-1.85l-0.28-1.62c-0.22-0.95-0.73-1.74-1.12-2.58
		c0-0.11-0.17-0.22-0.28-0.28c-0.67-0.39-1.29-0.84-1.9-1.23c-0.22-0.22-0.5-0.22-0.78-0.17c-0.22,0.45-0.34,0.78-0.56,1.12
		c-0.67,1.18-1.34,2.41-1.68,3.7c-0.06,0.17-0.11,0.22-0.11,0.39c-0.73,1.51-1.34,3.14-2.07,4.65c-0.34,0.84-0.67,1.68-0.95,2.63
		c-0.45,1.74-0.78,3.47-0.9,5.21c-0.11,0.28-0.11,0.56-0.11,0.84c0.11,1.23,0.45,2.18,1.34,2.69c0.56,0.28,1.12,0.34,1.74,0.34
		c0.67-0.06,1.29-0.34,1.9-0.67c0.28-0.22,0.56-0.45,0.84-0.5c0.17,0,0.28-0.17,0.28-0.22c0.17-0.39,0.45-0.56,0.62-0.78
		c0.39-0.34,0.78-0.67,1.01-1.23c0.22-0.34,0.5-0.62,0.78-1.01c0.06-0.11,0.11-0.17,0.11-0.28c0.06-0.39,0.34-0.62,0.56-0.73
		c0.22-0.22,0.34-0.5,0.62-0.78c0.5,0.11,0.78-0.22,1.01-0.78c0-0.06,0-0.11,0.06-0.11c0.06-0.17,0.22-0.17,0.28-0.11
		c0.06,0,0.17,0.11,0.22,0.11L55.48,148.54z"/>
	<path class="st0" d="M87.11,144.9c0,0-0.06,0-0.06-0.06C87.06,144.9,87.11,144.9,87.11,144.9z M87.06,144.79v0.06
		C87,144.62,87,144.68,87.06,144.79z M81.23,150.95c0.73-0.95,1.34-1.46,2.63-0.9c-0.17,0.39-0.28,0.9-0.56,1.34
		c-0.56,1.29-1.23,2.58-2.18,3.58l-0.22,0.17c-0.06,0.06-0.06,0.06-0.11,0.06c-0.28-0.11-0.5-0.39-0.62-0.67
		c-0.06-0.11-0.17-0.17-0.06-0.28c0-0.28,0-0.62,0.06-0.9C80.51,152.35,80.62,151.85,81.23,150.95z M85.21,143.78
		c0.67,3.75-2.3,4.87-3.92,1.68c-1.4-1.51-2.86-4.42-1.34-6.55c0.39-0.39,1.62-1.57,2.3-1.01c0.39,0.22,0.67,0.45,1.01,0.73
		c0.34,0.17,0.5,0.45,0.73,0.67c0.39,0.34,0.62,0.78,0.78,1.34c0.17,0.62,0.28,1.12,0.39,1.79
		C85.32,142.83,85.32,143.33,85.21,143.78z M78.55,144.85c-0.06,0.17-0.06,0.28-0.22,0.34c-0.84,1.01-1.57,2.07-2.07,3.3
		c-0.5,1.01-0.84,2.02-0.95,3.08s-0.06,2.07,0.06,3.08l0.5,1.51c0.56,0.95,1.23,1.68,2.24,1.79c0.73,0.11,1.51,0.17,2.3-0.06
		c0.17-0.11,0.45-0.22,0.56-0.22c0.62-0.17,1.12-0.56,1.57-1.06c0.06-0.17,0.22-0.28,0.34-0.34l0.39-0.28
		c0.34-0.22,0.56-0.62,0.78-0.95c0.39-0.5,0.78-1.01,1.06-1.68c0.39-0.95,0.9-1.85,1.06-2.8c0.06-0.11,0.11-0.17,0.11-0.28
		s0.17-0.17,0.34-0.17h0.17c2.02,0,7.17,0.06,8.85-1.74c0.22-0.22-0.34-0.34-0.17-0.62c0.06-0.11,0.11-0.34,0-0.5l-0.39,0.22
		l-0.9,0.45c-2.69,0.45-3.75,0.06-6.5,0.22c-0.45,0-0.78-0.39-0.62-0.73c0.17-0.62,0-1.23,0.06-1.9c0-0.06-0.06-0.5-0.06-0.73
		c-0.11-0.45-0.11-0.84-0.17-1.34c-0.11-0.56-0.17-1.12-0.34-1.62c-0.22-0.39-0.34-0.78-0.5-1.23c-0.28-0.73-0.62-1.23-1.12-1.68
		c-0.39-0.22-0.73-0.56-1.06-0.84c-0.28-0.22-1.51-1.34-1.96-1.34c-0.62-0.11-1.29-0.06-1.79,0.28c-0.67,0.39-1.23,0.73-1.68,1.12
		c-0.22,0.06-0.34,0.17-0.39,0.28c-0.5,0.9-0.78,1.79-0.62,2.74c0.17,1.29,0.45,2.52,1.06,3.53
		C78.55,144.73,78.55,144.79,78.55,144.85z"/>
	<path class="st0" d="M104.47,145.01c1.23-1.29,1.01,1.4,0.78,2.58c0,0.73-0.06,1.4-0.11,2.13c0.06,3.19,1.23,5.15,3.64,5.94
		c0.95,0.34,3.92,0.22,4.7-0.11l0.67-0.22c0.28-0.17,0.62-0.28,0.84-0.5c0.5-0.45,2.69-2.86,3.14-3.36c0.5-0.56,1.06-1.74,1.57-2.46
		c0.17-0.28,0.28-0.56,0.34-0.84c0-0.28,0.06-0.5,0.22-0.73c0.17-0.39,0.11,0.06,0.11-0.34c-0.06-0.34,0.06-0.56,0-0.9
		c-0.06-0.06-0.06-0.17-0.06-0.28c-0.22,0.22-0.22,0.34-0.34,0.5c-0.45,0.62-0.45,1.01-0.9,1.68c-0.22,0.28-1.96,1.57-2.13,1.79
		c-0.78,1.01-3.14,2.86-4.2,3.53c-0.34,0.11-0.56,0.28-0.84,0.39c-0.56,0.28-2.41,0.67-2.52-0.67c-0.11-1.01,0-3.47,0.34-4.65
		c0.28-1.06,0.39-1.68,0.62-2.74c0.22-0.84,0.11-1.46,0-2.3c0-0.34-0.06-0.56-0.22-0.84c-0.22-0.39-0.5-0.73-1.01-0.84
		c-0.67-0.11-1.34-0.06-2.07-0.17h-0.56c-0.5,0.11-0.9,0.34-1.18,0.84l-1.06,1.12c-1.23,1.34-1.85,1.74-3.14,3.3
		c-1.06,1.23-1.18,1.4-2.3,2.46c-0.73,0.39-1.23-0.34-0.5-1.51c0.62-0.9,0.39-0.73,0.84-1.68c1.01-2.13,1.68-4.2,1.74-6.27
		c0.06-0.62,0.06-1.18-0.22-1.62l-0.84-1.12c-0.06-0.11-0.22-0.28-0.28-0.28c-0.62-0.17-1.12-0.5-1.51-1.01
		c-0.11-0.17-0.39-0.22-0.67-0.06c0,0.17-0.06,0.22-0.06,0.39c-0.11,0.5-0.34,1.01-0.62,1.51c-0.28,0.67-0.67,1.34-1.06,2.02
		c-0.62,1.06-1.34,2.24-1.96,3.42c-0.67,1.4-1.29,2.8-1.85,4.2c-0.5,1.01-0.9,2.02-1.29,3.08c-0.78,2.07-1.23,4.14-1.68,6.16
		c-0.22,1.18,0.28,2.07,1.12,2.35c0.34,0.06,0.73,0.06,1.12,0.17c0.62,0.06,1.23,0,1.85,0.17c0.17,0.06,0.62,0.06,0.9-0.17
		c0.34-0.17,0.56-0.28,0.78-0.28c0.28,0,0.45-0.06,0.73-0.34c0.45-0.56,1.29-4.14,1.85-4.7c0.06-0.17,0.22-0.39,0.45-0.56
		c0.28-0.28,0.5-0.67,0.78-1.12c0.28-0.5,0.56-0.9,0.95-1.29c0.62-0.62,1.23-1.29,1.74-1.96c0.62-0.9,1.57-1.74,2.3-2.58
		C103.74,145.85,104.19,145.46,104.47,145.01z"/>
	<path class="st0" d="M125.75,134.99c-0.22-0.39-0.5-0.67-0.9-0.84c-0.22-0.06-0.5-0.11-0.73-0.22c-0.06-0.06-0.11,0-0.22,0.06
		s-0.22,0.06-0.22-0.06c-0.06-0.06-0.17-0.06-0.28,0c-0.11,0-0.22,0.11-0.34,0.22l-0.34,0.5c-0.17,0.34-0.45,0.62-0.45,0.95
		c0,0.06-0.17,0.17-0.17,0.28c-0.17,0.28-0.28,0.45-0.39,0.73c-0.06,0.22-0.17,0.39-0.17,0.56l-0.17,0.22
		c0.22,0.06,0.39,0.06,0.62,0.06c0.17,0,0.28,0,0.45,0.11c0.22,0.11,0.45,0.17,0.78-0.06c0.11-0.11,0.28-0.22,0.39-0.17
		c0.28-0.06,0.73-0.28,0.84-0.45l0.56-0.67c0.11-0.11,0.11-0.22,0.11-0.28c0.06-0.22,0.17-0.34,0.28-0.5
		C125.52,135.33,125.58,135.16,125.75,134.99z M119.92,141.49c-0.17,0.34-0.22,0.56-0.17,0.78c0.11,0.39-0.06,0.62-0.22,0.95
		c0,0-0.11,0.17-0.11,0.28c-0.34,0.78-1.34,2.02-1.79,3.14c-0.67,1.12,0.5-0.06,0.5-0.06c-0.28,0.39-0.34,0.73-0.62,1.12
		c-0.06,0.06-0.11,0.28-0.17,0.28c-0.39,0.06-0.28,0.34-0.39,0.39c0,0.34-0.11,0.62-0.17,0.9c-0.22,0.45-0.11,1.74-0.28,2.41
		c0,0.28,0,0.67,0.11,1.01c0,0.73,0.28,1.51,0.56,2.24c0.5,0.56,1.06,1.01,1.62,1.23c0.84,0.34,1.57,1.12,2.35,0.84
		c2.46,0.95,6.27-2.41,6.83-3.14c1.9-1.12,2.74-4.2,3.92-6.33c-0.78-0.17-0.17-0.95-0.45-1.51c-0.17,0.28-0.17,0.28-0.17,0.34
		c-0.28,0.9-0.9,1.57-1.4,2.3c-2.69,2.86-1.01,3.47-5.66,5.15c-0.34,0.06-0.62,0.17-0.9-0.06c-0.34-0.11-0.62-0.34-0.84-0.45
		c-0.17-0.22-0.39-0.45-0.45-0.84c-0.06-0.5,0.17-3.36,0.17-3.92c0.06-1.01,0.06-0.78,0.5-1.9c0.06-0.11,0.17-0.28,0.17-0.45
		c0.11-0.56-0.9,1.57-0.67,0.9c0.28-0.5,0.5-1.18,0.73-1.68l0.28-0.84c0.45-0.9,0.84-1.57,1.18-2.3c0.17-0.56,0.11-0.95-0.11-1.23
		c-0.22-0.22-0.78-0.5-0.95-0.73c-0.56-0.34-1.96,0.67-2.58,0.78c-0.17,0.11-0.28,0.17-0.45,0.39l-0.06,0.06
		C120.09,141.6,120.04,141.54,119.92,141.49z"/>
	<path class="st0" d="M148.65,146.13c-0.73,0.73-1.85,2.58-2.58,3.3l-0.9,0.78l-1.23,0.73c-0.34,0.22-0.73,0.39-1.06,0.56
		c-0.39,0.17-0.78,0.22-1.18,0.28c-0.22,0-0.39-0.11-0.5-0.28c-0.22-0.45-0.39-0.95-0.5-1.4c-0.06-0.39,0-0.78,0.17-1.18l0.78-1.57
		c0.06-0.11,0.11-0.17,0.11-0.28c-0.06-0.56-0.11-1.12-0.5-1.62l-0.34-0.34c-0.34-0.39-0.73-0.45-1.23-0.39l-1.18,1.9
		c-0.28,0.45-0.62,0.84-0.95,1.23l-0.45,0.5c-0.22,0.39-0.5,0.67-0.84,0.95c-0.67,0.5-1.29,1.06-1.85,1.62l-0.22,0.17
		c0-0.11-0.06-0.17,0-0.22c0.11-0.62,0.34-1.23,0.67-1.85c0.06-0.11,0.11-0.22,0.22-0.34l0.56-0.78c0.45-0.62,0.84-1.23,1.34-1.79
		l0.67-0.73c0.5-0.73,1.23-1.29,1.85-1.9v-0.06c0.45-0.34,0.9-0.67,1.4-0.9c0.5-0.28,0.62-0.62,0.5-1.12l-0.17-0.45
		c-0.22-0.39-0.62-0.67-0.95-1.01c-0.06-0.06-0.17-0.11-0.28-0.11c-0.28,0-0.5-0.28-0.78-0.28c0,0-0.06,0-0.11-0.06
		c-0.11-0.22-0.34-0.22-0.62-0.28c-0.11,0-0.22-0.06-0.34-0.11c-0.39-0.11-0.84-0.11-1.18-0.28h-0.17c-0.39,0-0.73,0.06-1.06,0.11
		c-0.17,0-0.39,0.06-0.5,0.11c-0.84,0.5-1.51,1.06-2.13,1.74c-0.84,1.01-1.74,2.07-2.46,3.19c-0.06,0.06-0.11,0.11-0.11,0.17
		c-0.56,0.62-0.95,1.34-1.34,2.07c-0.39,0.78-0.56,1.62-0.45,2.52c0.17,1.74,1.06,2.97,2.69,3.64c0.28,0.11,0.56,0.22,0.84,0.39
		c0.73,0.39,1.51,0.39,2.3,0.17c0.45-0.17,0.9-0.22,1.23-0.67c0,0,0.06-0.06,0.11-0.06l0.62-0.39c0.34-0.28,0.73-0.5,1.18-0.73
		c0.34,0.45,0.84,0.73,1.34,0.95l0.28,0.17c0.56,0.45,1.23,0.56,1.9,0.78h0.5c0.45-0.11,0.9-0.11,1.29-0.28
		c0.45-0.17,0.9-0.17,1.4-0.28c0.39-0.11,0.73-0.28,1.06-0.56c0.34-0.34,0.78-0.67,1.12-1.06c0.06-0.11,0.17-0.17,0.28-0.22
		c0.28-0.17,0.5-0.34,0.67-0.67c0.06-0.17,0.22-0.28,0.34-0.39l0.62-0.73c0.11-0.06,0.17-0.22,0.34-0.28
		c0.28-0.22,0.84-1.57,0.9-1.96c-0.28-0.28-0.56-0.5-0.95-0.56L148.65,146.13z"/>
</g>
<g>
	<path class="st1" d="M76.18,57.82c11.65-1.32,14.44-19.11,13.32-28.96C87.97,15.6,79.49,12.48,78.31,0
		c-8.98,10.89-15.64,22.11-14.28,34.49C65.29,47.66,68.84,56.56,76.18,57.82z"/>
	<path class="st1" d="M81.39,73.1c0.82-3.3,12.91-1.21,20.37-1.21c24.23-0.19,24.39,15.2,31.74,22.49
		c-10,0.75-17.27,7.68-30.08,2.56C90.89,92.4,82.67,84.8,81.39,73.1z"/>
	<path class="st1" d="M70.83,67.67c0.78-6.9-13.98-4.55-28.95-1.62c-17.59,3.49-17.13,18-25.6,26.96
		c10.49-1.23,18.61,6.65,29.54,1.33C60.36,87.01,76.21,70.36,70.83,67.67z"/>
	<path class="st1" d="M65.87,59.75c-2.11-1.39-2.08-3.82-3.2-6.18c-4.45-6.77-11.39-9.19-20.62-7.85c-2.23,0.36-4.77,1.6-7.21,2.54
		c3.5,5.3,7.83,7.3,12.18,8.33c5.7,1.33,4.51,3.36,13.23,2.98C62.19,59.61,64.23,58.86,65.87,59.75z"/>
	<path class="st1" d="M74.26,79.21c3.92,3.16,8.26,4.68,8.01,21.23c-1.94,13.02-9.94,16.43-14.81,24.36
		c-1.61-8.88-8.12-13.93-4.82-27.13C65.99,81.05,71.5,82.48,74.26,79.21z"/>
	<path class="st1" d="M85.52,64.33c0.45-3.59-0.38-6.82,9.31-12.74c8-3.41,12.98,0.45,19.37,0.72c-4.52,4.13-5,10.16-13.66,12.69
		C89.72,69.05,88.43,64.85,85.52,64.33z"/>
</g>
</svg>
