<?xml version="1.0" encoding="utf-8"?>
<!-- Generator: Adobe Illustrator 26.0.0, SVG Export Plug-In . SVG Version: 6.00 Build 0)  -->
<svg version="1.1" id="Capa_1" xmlns="http://www.w3.org/2000/svg" xmlns:xlink="http://www.w3.org/1999/xlink" x="0px" y="0px"
	 viewBox="0 0 329.34 125" style="enable-background:new 0 0 329.34 125;" xml:space="preserve">
<style type="text/css">
	.st0{fill:#579A62;}
	.st1{fill-rule:evenodd;clip-rule:evenodd;fill:#579A62;}
</style>
<g>
	<path class="st0" d="M141.24,66.16c2.71-4.94,4.72-9.51,4.1-1.16c-0.08,1.24-0.15,2.55-0.15,3.78c-0.08,0.54-0.23,0.86-0.77,1.08
		C138.6,73.66,136.67,72.11,141.24,66.16z M155.91,64.15c0-0.54,0-1.08,0.08-1.63c0.23-1.31,0.3-2.62,0.77-3.86
		c0.54-1.63,0.92-3.24,0.92-4.94c0-0.3,0.08-0.62,0.08-0.86c0.39-2.24,0.69-4.4,1.01-6.65c0.3-1.7,0.47-3.4,0.08-5.11
		c-0.08-0.39-0.23-0.86-0.47-1.24c-0.54-0.69-1.16-1.31-1.78-1.93c-0.3-0.3-0.69-0.47-1.08-0.54l-3.48-0.86
		c-0.86-0.23-1.08-0.15-1.55,0.69c-1.24,2.55-2.4,5.26-3.09,8.03c-0.3,1.63-0.62,3.24-0.77,4.94c-0.08,1.39-0.54,2.62-1.39,3.86
		l-5.95,9.36c-1.7,2.55-3.17,5.33-5.26,7.65c-0.15,0.15-0.23,0.39-0.39,0.62l-2.47,2.86c-0.15,0.15-0.54,0.23-0.69,0.15
		c-0.77-0.3-1.55-0.62-2.24-1.01c-0.47-0.3-0.92-0.54-1.46-0.3c-0.15,0.54,0,0.92,0.39,1.31l1.55,1.16l0.69,0.62
		c-1.01,1.31,0.23,0.08-0.86,1.16l-2.08,2.17c-1.31,1.55-2.62,3.17-3.86,4.79c1.39,1.93-0.3,4.4,3.63,3.78
		c1.63,0.54-0.62-1.01,1.16-1.16c0.47-0.08,0.69-0.23,1.01-0.54c1.31-2.17,3.01-4.17,4.33-6.49c0.62-1.01,1.55-2.24,2.86-2.71
		c1.31-0.3,2.71-0.69,3.95-1.08c1.63-0.62,3.24-1.08,4.64-2.17c0.23-0.15,0.54-0.23,0.86-0.39l0.23,1.24
		c0.23,3.4,0.47,6.72,1.46,9.97l0.47,1.85c0,0.23,0,0.69-0.08,0.69c-0.47,0.23-0.3,0.62-0.3,0.92c0.47,1.93,1.16,3.78,2.24,5.49
		c0.3,0.47,0.77,0.77,1.24,1.16c0.3,0.23,0.77,0.47,1.31,0.3c0-0.92,0.77-0.62,1.39-0.69c0-0.15,0-0.3,0.08-0.39l0.23-0.3l0.69,0.69
		c0.08-0.69,0.15-1.31,0.15-1.93c0-0.86-0.08-1.7-0.08-2.55c-0.08-1.24-0.15-2.4-0.39-3.63c-0.23-1.55-0.39-3.09,0-4.64
		c0.08-0.54,0.15-1.01,0.15-1.55c0.08-2.02,0.08-4.1,0.08-6.03c0.15-0.15,0.23-0.23,0.3-0.23c0-0.08,0.08-0.08,0.15-0.15
		c0.54-0.3,0.69-1.24,0.23-1.31c-0.15,0.15-0.23,0.39-0.54,0.69c0-0.54,0-0.92,0.39-1.08c0.62-0.23,0.62-0.69,0.69-1.24
		c0-0.69,0.15-1.46,0.15-2.17c0-0.47,0.23-0.77,0.62-1.01c2.08-1.24,4.02-2.62,6.18-3.71c0.39-0.15,0.86-0.3,1.01-0.77
		c-0.54-0.23-0.92-0.54-1.39-0.69c-0.3-0.15-0.69-0.23-1.01-0.15c-1.08,0.08-2.08,0.39-3.09,0.92l-1.55,0.69L155.91,64.15z"/>
	<path class="st0" d="M167.89,75.89c0.86-2.94,2.71-5.49,3.71-8.74c0.39-1.63,0.54-0.47,0.92-2.02c0.47-1.46,0.3-2.4-0.39-3.63
		c-0.77-0.92-1.55-1.63-2.08-2.62c-0.62-0.54-1.08-0.69-1.55-0.77c-0.69-0.15-1.39-0.3-1.93-0.3c-0.77-0.15-1.08,0-1.39,1.01
		c-0.62,1.24-1.08,2.47-1.63,3.86c-0.15,0.54-0.47,0.92-0.54,1.46c-1.08,3.01-0.77,2.55-1.31,5.56c-0.62,2.08-0.3,1.93-0.69,4.17
		c-0.15,2.02-0.23,4.02-0.3,6.03c0,1.31,0,2.71,0.23,4.02c0.3,1.55,0.92,2.71,2.17,3.01c0.15,0.15,0.3,0.3,0.47,0.15
		c1.24,0.3,2.32,0.39,3.24-0.92c0.15-0.15,0.39-0.23,0.39-0.39c0.47-0.39,2.4-4.1,2.55-4.55c0.23-0.62,0.54-1.24,0.69-1.78
		c0.54-1.7,1.39-3.17,2.08-4.79c0.47-1.08,1.01-2.02,1.39-3.09c0.47-1.46,1.08-2.71,1.78-4.02c0.08-0.23,0.3-0.47,0.23-0.77
		c0.08-0.54,0.23-1.01,0.47-1.39l1.08-1.93l0.3-0.39c0-0.15,0.15-0.08,0.23-0.08c0.08,0.3,0.08,0.54-0.08,0.86l-0.23,1.39
		c-0.08,0.62-0.08,1.24-0.23,1.93c-0.23,1.46-0.23,3.01,0.23,4.4c0.39,1.08,1.08,1.93,2.02,2.17c0.54,0.23,1.08,0.3,1.63,0.62
		c0.15,0.15,0.39,0.15,0.62,0c0.3-0.23,0.62-0.3,0.69-0.3c0.3,0,0.54-0.08,0.86-0.39l0.23-0.15c0-0.08,0.15-0.15,0.23-0.23
		l0.23-0.23c0.23-0.08,0.39-0.3,0.47-0.54l0.23-0.39c0.23-0.15,0.3-0.39,0.3-0.62c-0.3-0.39-0.54-0.39-0.77,0
		c-0.3,0.39-0.62,0.62-0.92,0.86l-0.3,0.39c-0.15,0.15-0.69-0.08-0.86,0.08c-0.08,0.08,0-0.23-0.39-0.47c0.08-0.69,0-1.39,0-2.08
		c0-1.01,0.08-2.08-0.08-3.09l-0.54-3.17v-0.3c-0.47-1.01-1.01-1.7-1.93-1.7c-0.47,0-0.92,0.08-1.46,0.08
		c-0.47,0.08-0.92,0.39-1.24,0.92c-0.3,0.62-0.77,1.31-1.24,1.93c-0.39,0.77-0.86,1.46-1.31,2.17c-0.54,0.92-3.24,6.42-3.56,7.58
		C170.29,75.98,166.73,79.61,167.89,75.89z"/>
	<path class="st0" d="M199.2,75.12c0.23-0.39,0.54-0.92,0.69-1.31c0.39-0.62,0.69-1.31,1.16-1.93c0.47-0.77,1.08-1.39,1.78-2.08
		c0.62-0.69,1.08-1.46,1.46-2.4c0.3-0.69,0.69-1.16,1.16-1.7c0.77-0.62,1.55-1.39,2.32-2.17c0.3-0.23,0.54-0.39,0.69-0.62
		c0.3-0.3,0.62-0.3,0.86-0.08c0.15,0.47-0.08,0.86-0.39,1.16c-0.54,1.08-1.24,2.02-1.78,3.01c-2.24,3.24-4.1,6.65-5.33,10.52
		c-0.3,0.86-0.47,1.63-0.47,2.47c-0.08,1.08,0.15,1.78,0.69,2.32c0.47,0.54,1.01,0.92,1.63,1.01c1.31,0.15,2.71-0.23,3.95-1.24
		c0.3-0.3,0.54-0.62,0.77-0.92c0.69-0.77,1.63-1.24,2.08-2.17c0.15-0.23,0.3-0.23,0.39-0.39c0.92-0.69,1.78-1.31,2.47-2.17
		c0.15-0.3,0.39-0.39,0.54-0.54l1.85-1.55c0.39-0.3,0.77-0.54,1.16-0.3c0.3-0.39,0.47-0.77,0.77-1.08c0.47-0.69,0.47-0.69,0.54-1.46
		c0.3-0.23,0.69-0.39,1.08-0.54c0.39-0.08,0.69-0.62,1.16-0.69c0,0.23,0.08,0.3,0,0.47c0,0.23-0.08,0.54-0.15,0.77
		c-0.69,1.85-1.16,3.71-1.55,5.65c-0.3,1.16-0.3,2.32,0.08,3.24c0.47,1.08,1.7,1.93,2.47,2.62c0.39,0.3,2.24,0.47,2.62,0.47
		c0.86,0,4.1-2.32,4.49-3.17c0.15-0.08,0.39-0.15,0.39-0.39c0.54-0.54,1.01-1.08,1.7-1.55c0.08-0.15,0.3-0.39,0.3-0.69
		c0.39-0.92,0.86-1.7,1.31-2.55c0.15-0.15,0.15-0.39,0.3-0.39c0.23,0.15,0.62-1.46,0.62-1.16c0.15-1.31-0.23-0.62,0-1.78
		c0.08-0.08,0-0.08-0.15-0.3c-0.23,0.23-0.39,0.62-0.47,1.01c-1.08,1.85-2.24,3.63-3.63,5.18c-0.77,1.01-4.79,3.86-5.95,3.63
		c-0.39-0.15-0.54-0.39-0.54-0.92c-0.08-0.86-0.08-1.63,0-2.47c0.15-0.86,0.3-1.78,0.39-2.71c0.3-0.39,0-1.01,0.47-1.24
		c0.23-0.62,0.39-1.16,0.39-1.7c-0.08-0.62-0.08-1.24,0-1.93c-0.3-0.39-0.54-0.77-0.92-0.92c-0.54-0.23-0.69-0.77-1.08-1.08
		c-0.3-0.3-0.69-0.39-1.16,0c-0.23,0.23-0.39,0.39-0.62,0.47c-1.39,0.77-2.71,1.85-3.95,3.01c-1.31,1.39-2.71,2.62-4.25,3.48
		c-0.08,0.08-0.3,0.23-0.54,0.3c0.15-0.86,0.47-1.55,0.62-2.24c0.69-1.63,1.16-3.24,1.7-5.02c0.23-0.86,0.23-1.63,0.08-2.4
		c-0.08-0.62-0.23-1.08-0.39-1.63c-0.23-0.62-0.47-1.08-0.86-1.39c-0.62-0.54-1.16-1.24-1.78-1.85c-0.15-0.15-0.39-0.23-0.69-0.39
		c-0.54-0.08-1.24,0-1.93,0.3c-0.23,0.08-0.54,0.3-0.86,0.62c-1.63,1.78-3.24,3.56-4.72,5.56c-0.47,0.69-0.92,1.16-1.46,1.78
		c-1.31,1.55-2.55,3.09-3.95,4.64l-2.4,2.79c-0.08,0.08-0.23,0.08-0.39,0.15c0.3-0.62,0.47-1.24,0.54-1.78
		c0.15-0.15,0.15-0.23,0.15-0.23c0-0.08,0.08-0.15,0.08-0.15c0.69-1.55,1.16-3.09,1.63-4.64l0.3-1.16c0.3-0.62,0.47-1.31,0.77-1.93
		c0.39-0.77,0.47-1.7,0.3-2.55l-0.39-2.24c-0.3-1.31-1.01-2.4-1.55-3.56c0-0.15-0.23-0.3-0.39-0.39c-0.92-0.54-1.78-1.16-2.62-1.7
		c-0.3-0.3-0.69-0.3-1.08-0.23c-0.3,0.62-0.47,1.08-0.77,1.55c-0.92,1.63-1.85,3.33-2.32,5.11c-0.08,0.23-0.15,0.3-0.15,0.54
		c-1.01,2.08-1.85,4.33-2.86,6.42c-0.47,1.16-0.92,2.32-1.31,3.63c-0.62,2.4-1.08,4.79-1.24,7.19c-0.15,0.39-0.15,0.77-0.15,1.16
		c0.15,1.7,0.62,3.01,1.85,3.71c0.77,0.39,1.55,0.47,2.4,0.47c0.92-0.08,1.78-0.47,2.62-0.92c0.39-0.3,0.77-0.62,1.16-0.69
		c0.23,0,0.39-0.23,0.39-0.3c0.23-0.54,0.62-0.77,0.86-1.08c0.54-0.47,1.08-0.92,1.39-1.7c0.3-0.47,0.69-0.86,1.08-1.39
		c0.08-0.15,0.15-0.23,0.15-0.39c0.08-0.54,0.47-0.86,0.77-1.01c0.3-0.3,0.47-0.69,0.86-1.08c0.69,0.15,1.08-0.3,1.39-1.08
		c0-0.08,0-0.15,0.08-0.15c0.08-0.23,0.3-0.23,0.39-0.15c0.08,0,0.23,0.15,0.3,0.15L199.2,75.12z"/>
	<path class="st0" d="M242.85,70.1c0,0-0.08,0-0.08-0.08C242.78,70.1,242.85,70.1,242.85,70.1z M242.78,69.94v0.08
		C242.7,69.71,242.7,69.79,242.78,69.94z M234.74,78.45c1.01-1.31,1.85-2.02,3.63-1.24c-0.23,0.54-0.39,1.24-0.77,1.85
		c-0.77,1.78-1.7,3.56-3.01,4.94l-0.3,0.23c-0.08,0.08-0.08,0.08-0.15,0.08c-0.39-0.15-0.69-0.54-0.86-0.92
		c-0.08-0.15-0.23-0.23-0.08-0.39c0-0.39,0-0.86,0.08-1.24C233.74,80.38,233.9,79.69,234.74,78.45z M240.23,68.55
		c0.92,5.18-3.17,6.72-5.41,2.32c-1.93-2.08-3.95-6.1-1.85-9.04c0.54-0.54,2.24-2.17,3.17-1.39c0.54,0.3,0.92,0.62,1.39,1.01
		c0.47,0.23,0.69,0.62,1.01,0.92c0.54,0.47,0.86,1.08,1.08,1.85c0.23,0.86,0.39,1.55,0.54,2.47
		C240.38,67.24,240.38,67.93,240.23,68.55z M231.04,70.03c-0.08,0.23-0.08,0.39-0.3,0.47c-1.16,1.39-2.17,2.86-2.86,4.55
		c-0.69,1.39-1.16,2.79-1.31,4.25c-0.15,1.46-0.08,2.86,0.08,4.25l0.69,2.08c0.77,1.31,1.7,2.32,3.09,2.47
		c1.01,0.15,2.08,0.23,3.17-0.08c0.23-0.15,0.62-0.3,0.77-0.3c0.86-0.23,1.55-0.77,2.17-1.46c0.08-0.23,0.3-0.39,0.47-0.47
		l0.54-0.39c0.47-0.3,0.77-0.86,1.08-1.31c0.54-0.69,1.08-1.39,1.46-2.32c0.54-1.31,1.24-2.55,1.46-3.86
		c0.08-0.15,0.15-0.23,0.15-0.39c0-0.15,0.23-0.23,0.47-0.23h0.23c2.79,0,9.9,0.08,12.22-2.4c0.3-0.3-0.47-0.47-0.23-0.86
		c0.08-0.15,0.15-0.47,0-0.69l-0.54,0.3l-1.24,0.62c-3.71,0.62-5.18,0.08-8.97,0.3c-0.62,0-1.08-0.54-0.86-1.01
		c0.23-0.86,0-1.7,0.08-2.62c0-0.08-0.08-0.69-0.08-1.01c-0.15-0.62-0.15-1.16-0.23-1.85c-0.15-0.77-0.23-1.55-0.47-2.24
		c-0.3-0.54-0.47-1.08-0.69-1.7c-0.39-1.01-0.86-1.7-1.55-2.32c-0.54-0.3-1.01-0.77-1.46-1.16c-0.39-0.3-2.08-1.85-2.71-1.85
		c-0.86-0.15-1.78-0.08-2.47,0.39c-0.92,0.54-1.7,1.01-2.32,1.55c-0.3,0.08-0.47,0.23-0.54,0.39c-0.69,1.24-1.08,2.47-0.86,3.78
		c0.23,1.78,0.62,3.48,1.46,4.87C231.04,69.86,231.04,69.94,231.04,70.03z"/>
	<path class="st0" d="M266.82,70.25c1.7-1.78,1.39,1.93,1.08,3.56c0,1.01-0.08,1.93-0.15,2.94c0.08,4.4,1.7,7.11,5.02,8.2
		c1.31,0.47,5.41,0.3,6.49-0.15l0.92-0.3c0.39-0.23,0.86-0.39,1.16-0.69c0.69-0.62,3.71-3.95,4.33-4.64c0.69-0.77,1.46-2.4,2.17-3.4
		c0.23-0.39,0.39-0.77,0.47-1.16c0-0.39,0.08-0.69,0.3-1.01c0.23-0.54,0.15,0.08,0.15-0.47c-0.08-0.47,0.08-0.77,0-1.24
		c-0.08-0.08-0.08-0.23-0.08-0.39c-0.3,0.3-0.3,0.47-0.47,0.69c-0.62,0.86-0.62,1.39-1.24,2.32c-0.3,0.39-2.71,2.17-2.94,2.47
		c-1.08,1.39-4.33,3.95-5.8,4.87c-0.47,0.15-0.77,0.39-1.16,0.54c-0.77,0.39-3.33,0.92-3.48-0.92c-0.15-1.39,0-4.79,0.47-6.42
		c0.39-1.46,0.54-2.32,0.86-3.78c0.3-1.16,0.15-2.02,0-3.17c0-0.47-0.08-0.77-0.3-1.16c-0.3-0.54-0.69-1.01-1.39-1.16
		c-0.92-0.15-1.85-0.08-2.86-0.23h-0.77c-0.69,0.15-1.24,0.47-1.63,1.16l-1.46,1.55c-1.7,1.85-2.55,2.4-4.33,4.55
		c-1.46,1.7-1.63,1.93-3.17,3.4c-1.01,0.54-1.7-0.47-0.69-2.08c0.86-1.24,0.54-1.01,1.16-2.32c1.39-2.94,2.32-5.8,2.4-8.65
		c0.08-0.86,0.08-1.63-0.3-2.24l-1.16-1.55c-0.08-0.15-0.3-0.39-0.39-0.39c-0.86-0.23-1.55-0.69-2.08-1.39
		c-0.15-0.23-0.54-0.3-0.92-0.08c0,0.23-0.08,0.3-0.08,0.54c-0.15,0.69-0.47,1.39-0.86,2.08c-0.39,0.92-0.92,1.85-1.46,2.79
		c-0.86,1.46-1.85,3.09-2.71,4.72c-0.92,1.93-1.78,3.86-2.55,5.8c-0.69,1.39-1.24,2.79-1.78,4.25c-1.08,2.86-1.7,5.71-2.32,8.5
		c-0.3,1.63,0.39,2.86,1.55,3.24c0.47,0.08,1.01,0.08,1.55,0.23c0.86,0.08,1.7,0,2.55,0.23c0.23,0.08,0.86,0.08,1.24-0.23
		c0.47-0.23,0.77-0.39,1.08-0.39c0.39,0,0.62-0.08,1.01-0.47c0.62-0.77,1.78-5.71,2.55-6.49c0.08-0.23,0.3-0.54,0.62-0.77
		c0.39-0.39,0.69-0.92,1.08-1.55c0.39-0.69,0.77-1.24,1.31-1.78c0.86-0.86,1.7-1.78,2.4-2.71c0.86-1.24,2.17-2.4,3.17-3.56
		C265.81,71.41,266.43,70.87,266.82,70.25z"/>
	<path class="st0" d="M296.19,56.42c-0.3-0.54-0.69-0.92-1.24-1.16c-0.3-0.08-0.69-0.15-1.01-0.3c-0.08-0.08-0.15,0-0.3,0.08
		c-0.15,0.08-0.3,0.08-0.3-0.08c-0.08-0.08-0.23-0.08-0.39,0c-0.15,0-0.3,0.15-0.47,0.3L292,55.95c-0.23,0.47-0.62,0.86-0.62,1.31
		c0,0.08-0.23,0.23-0.23,0.39c-0.23,0.39-0.39,0.62-0.54,1.01c-0.08,0.3-0.23,0.54-0.23,0.77l-0.22,0.32
		c0.3,0.08,0.54,0.08,0.86,0.08c0.23,0,0.39,0,0.62,0.15c0.3,0.15,0.62,0.23,1.08-0.08c0.15-0.15,0.39-0.3,0.54-0.23
		c0.39-0.08,1.01-0.39,1.16-0.62l0.77-0.92c0.15-0.15,0.15-0.3,0.15-0.39c0.08-0.3,0.23-0.47,0.39-0.69
		C295.87,56.89,295.95,56.65,296.19,56.42z M288.14,65.39c-0.23,0.47-0.3,0.77-0.23,1.08c0.15,0.54-0.08,0.86-0.3,1.31
		c0,0-0.15,0.23-0.15,0.39c-0.47,1.08-1.85,2.79-2.47,4.33c-0.92,1.55,0.69-0.08,0.69-0.08c-0.39,0.54-0.47,1.01-0.86,1.55
		c-0.08,0.08-0.15,0.39-0.23,0.39c-0.54,0.08-0.39,0.47-0.54,0.54c0,0.47-0.15,0.86-0.23,1.24c-0.3,0.62-0.15,2.4-0.39,3.33
		c0,0.39,0,0.92,0.15,1.39c0,1.01,0.39,2.08,0.77,3.09c0.69,0.77,1.46,1.39,2.24,1.7c1.16,0.47,2.17,1.55,3.24,1.16
		c3.4,1.31,8.65-3.33,9.43-4.33c2.62-1.55,3.78-5.8,5.41-8.74c-1.08-0.23-0.23-1.31-0.62-2.08c-0.23,0.39-0.23,0.39-0.23,0.47
		c-0.39,1.24-1.24,2.17-1.93,3.17c-3.71,3.95-1.39,4.79-7.81,7.11c-0.47,0.08-0.86,0.23-1.24-0.08c-0.47-0.15-0.86-0.47-1.16-0.62
		c-0.23-0.3-0.54-0.62-0.62-1.16c-0.08-0.69,0.23-4.64,0.23-5.41c0.08-1.39,0.08-1.08,0.69-2.62c0.08-0.15,0.23-0.39,0.23-0.62
		c0.15-0.77-1.24,2.17-0.92,1.24c0.39-0.69,0.69-1.63,1.01-2.32l0.39-1.16c0.62-1.24,1.16-2.17,1.63-3.17
		c0.23-0.77,0.15-1.31-0.15-1.7c-0.3-0.3-1.08-0.69-1.31-1.01c-0.77-0.47-2.71,0.92-3.56,1.08c-0.23,0.15-0.39,0.23-0.62,0.54
		l-0.08,0.08C288.37,65.54,288.31,65.46,288.14,65.39z"/>
	<path class="st0" d="M327.79,71.79c-1.01,1.01-2.55,3.56-3.56,4.55l-1.24,1.08l-1.7,1.01c-0.47,0.3-1.01,0.54-1.46,0.77
		c-0.54,0.23-1.08,0.3-1.63,0.39c-0.3,0-0.54-0.15-0.69-0.39c-0.3-0.62-0.54-1.31-0.69-1.93c-0.08-0.54,0-1.08,0.23-1.63l1.08-2.17
		c0.08-0.15,0.15-0.23,0.15-0.39c-0.08-0.77-0.15-1.55-0.69-2.24l-0.47-0.47c-0.47-0.54-1.01-0.62-1.7-0.54l-1.63,2.62
		c-0.39,0.62-0.86,1.16-1.31,1.7l-0.62,0.69c-0.3,0.54-0.69,0.92-1.16,1.31c-0.92,0.69-1.78,1.46-2.55,2.24l-0.3,0.23
		c0-0.15-0.08-0.23,0-0.3c0.15-0.86,0.47-1.7,0.92-2.55c0.08-0.15,0.15-0.3,0.3-0.47l0.77-1.08c0.62-0.86,1.16-1.7,1.85-2.47
		l0.92-1.01c0.69-1.01,1.7-1.78,2.55-2.62v-0.08c0.62-0.47,1.24-0.92,1.93-1.24c0.69-0.39,0.86-0.86,0.69-1.55l-0.23-0.62
		c-0.3-0.54-0.86-0.92-1.31-1.39c-0.08-0.08-0.23-0.15-0.39-0.15c-0.39,0-0.69-0.39-1.08-0.39c0,0-0.08,0-0.15-0.08
		c-0.15-0.3-0.47-0.3-0.86-0.39c-0.15,0-0.3-0.08-0.47-0.15c-0.54-0.15-1.16-0.15-1.63-0.39h-0.23c-0.54,0-1.01,0.08-1.46,0.15
		c-0.23,0-0.54,0.08-0.69,0.15c-1.16,0.69-2.08,1.46-2.94,2.4c-1.16,1.39-2.4,2.86-3.4,4.4c-0.08,0.08-0.15,0.15-0.15,0.23
		c-0.77,0.86-1.31,1.85-1.85,2.86c-0.54,1.08-0.77,2.24-0.62,3.48c0.23,2.4,1.46,4.1,3.71,5.02c0.39,0.15,0.77,0.3,1.16,0.54
		c1.01,0.54,2.08,0.54,3.17,0.23c0.62-0.23,1.24-0.3,1.7-0.92c0,0,0.08-0.08,0.15-0.08l0.86-0.54c0.47-0.39,1.01-0.69,1.63-1.01
		c0.47,0.62,1.16,1.01,1.85,1.31l0.39,0.23c0.77,0.62,1.7,0.77,2.62,1.08h0.69c0.62-0.15,1.24-0.15,1.78-0.39
		c0.62-0.23,1.24-0.23,1.93-0.39c0.54-0.15,1.01-0.39,1.46-0.77c0.47-0.47,1.08-0.92,1.55-1.46c0.08-0.15,0.23-0.23,0.39-0.3
		c0.39-0.23,0.69-0.47,0.92-0.92c0.08-0.23,0.3-0.39,0.47-0.54l0.86-1.01c0.15-0.08,0.23-0.3,0.47-0.39
		c0.39-0.3,1.16-2.17,1.24-2.71c-0.39-0.39-0.77-0.69-1.31-0.77L327.79,71.79z"/>
</g>
<g>
	<path class="st1" d="M59.87,58.17c11.65-1.32,14.44-19.11,13.32-28.96C71.66,15.95,63.17,12.82,62,0.35
		c-8.98,10.89-15.64,22.11-14.28,34.49C48.98,48,52.53,56.91,59.87,58.17z"/>
	<path class="st1" d="M65.08,73.45c0.82-3.3,12.91-1.21,20.37-1.21c24.23-0.19,24.39,15.2,31.74,22.49
		c-10,0.75-17.27,7.68-30.08,2.56C74.58,92.75,66.36,85.15,65.08,73.45z"/>
	<path class="st1" d="M54.52,68.01c0.78-6.9-13.98-4.55-28.95-1.62c-17.59,3.49-17.13,18-25.6,26.96
		c10.49-1.23,18.61,6.65,29.54,1.33C44.05,87.36,59.9,70.71,54.52,68.01z"/>
	<path class="st1" d="M49.56,60.1c-2.11-1.39-2.08-3.82-3.2-6.18c-4.45-6.77-11.39-9.19-20.62-7.85c-2.23,0.36-4.77,1.6-7.21,2.54
		c3.5,5.3,7.83,7.3,12.18,8.33c5.7,1.33,4.51,3.36,13.23,2.98C45.87,59.95,47.92,59.2,49.56,60.1z"/>
	<path class="st1" d="M57.95,79.55c3.92,3.16,8.26,4.68,8.01,21.23c-1.94,13.02-9.94,16.43-14.81,24.36
		c-1.61-8.88-8.12-13.93-4.82-27.13C49.68,81.4,55.19,82.83,57.95,79.55z"/>
	<path class="st1" d="M69.21,64.67c0.45-3.59-0.38-6.82,9.31-12.74c8-3.41,12.98,0.45,19.37,0.72c-4.52,4.13-5,10.16-13.66,12.69
		C73.41,69.4,72.12,65.2,69.21,64.67z"/>
</g>
</svg>
