<?xml version="1.0" standalone="no"?>
<!DOCTYPE svg PUBLIC "-//W3C//DTD SVG 20010904//EN"
 "http://www.w3.org/TR/2001/REC-SVG-20010904/DTD/svg10.dtd">
<svg version="1.0" xmlns="http://www.w3.org/2000/svg"
 width="300.000000pt" height="300.000000pt" viewBox="0 0 300.000000 300.000000"
 preserveAspectRatio="xMidYMid meet">
<metadata>
Created by potrace 1.10, written by Peter Selinger 2001-2011
</metadata>
<g transform="translate(0.000000,300.000000) scale(0.100000,-0.100000)"
fill="#000000" stroke="none">
<path d="M1364 2981 c-122 -33 -231 -96 -362 -209 -65 -57 -83 -92 -62 -117
22 -27 48 -16 122 51 142 128 274 193 409 202 77 4 171 -14 211 -42 16 -11 9
-14 -50 -25 -74 -13 -153 -52 -233 -116 -42 -34 -49 -44 -47 -70 5 -50 44 -46
116 12 106 85 229 115 317 79 68 -29 93 -138 55 -241 -19 -49 -39 -76 -114
-150 -109 -108 -215 -180 -436 -294 -231 -120 -322 -195 -409 -338 l-32 -51
-65 36 -65 37 5 180 c3 137 9 198 25 255 37 141 77 237 130 315 28 41 27 73
-4 87 -21 9 -28 8 -46 -8 -34 -31 -126 -231 -153 -332 -31 -116 -51 -311 -42
-414 l6 -78 -25 0 -25 0 0 250 c0 236 -1 251 -20 270 -20 20 -47 18 -62 -4
-14 -20 -9 -581 4 -594 7 -7 44 -12 95 -12 99 0 126 -11 256 -107 93 -69 109
-100 66 -123 -17 -9 -42 -1 -153 49 -74 34 -143 61 -154 61 -11 0 -30 -8 -42
-18 -19 -15 -25 -34 -33 -114 -12 -110 -5 -149 42 -218 42 -62 169 -188 261
-256 43 -32 81 -65 85 -73 22 -54 -101 -53 -235 2 -240 99 -380 225 -431 388
-18 56 -19 98 -19 549 0 419 -2 489 -15 500 -22 18 -64 4 -71 -24 -3 -12 -4
-243 -2 -512 3 -480 4 -490 26 -553 71 -196 263 -357 542 -451 144 -49 248
-32 284 45 15 32 16 44 7 76 -9 31 -28 51 -94 101 -107 81 -229 198 -267 256
-26 40 -30 54 -30 118 0 40 5 76 10 79 6 4 60 -16 121 -44 132 -60 180 -66
228 -25 69 58 63 145 -16 213 -46 39 -46 39 -33 72 19 45 95 137 161 195 32
28 108 75 175 108 106 53 264 142 334 189 25 16 28 15 88 -13 171 -81 289
-211 362 -401 16 -43 30 -84 29 -91 0 -7 -23 -30 -50 -51 -88 -67 -100 -148
-34 -214 49 -49 94 -46 234 18 61 28 115 48 121 44 5 -3 10 -39 10 -79 0 -64
-4 -78 -30 -118 -38 -58 -160 -175 -267 -256 -66 -50 -85 -70 -94 -101 -9 -32
-8 -44 7 -76 36 -77 140 -94 284 -45 279 94 471 255 542 451 22 63 23 73 26
553 2 269 1 500 -2 512 -7 28 -49 42 -71 24 -13 -11 -15 -81 -15 -500 0 -451
-1 -493 -19 -549 -51 -163 -191 -289 -431 -388 -134 -55 -257 -56 -235 -2 4 8
42 41 85 73 92 68 219 194 261 256 47 69 54 108 42 218 -8 80 -14 99 -33 114
-12 10 -31 18 -42 18 -11 0 -80 -27 -154 -61 -111 -50 -136 -58 -153 -49 -41
22 -26 54 52 113 41 30 98 69 129 86 49 28 63 31 139 31 53 0 90 5 97 12 13
13 18 574 4 594 -15 22 -42 24 -62 4 -19 -19 -20 -34 -20 -270 l0 -250 -34 0
-33 0 9 53 c23 121 -4 260 -61 311 -12 11 -21 31 -21 45 -1 66 -32 189 -64
258 -43 89 -114 163 -203 211 -56 29 -63 37 -78 82 -37 113 -159 229 -279 266
-83 25 -199 27 -282 5z m632 -449 c47 -35 108 -101 127 -139 15 -29 41 -108
51 -155 6 -26 5 -27 -28 -21 -28 4 -36 1 -45 -16 -17 -30 -4 -48 71 -101 80
-58 101 -98 101 -194 0 -39 -5 -95 -12 -123 -11 -43 -19 -57 -48 -74 -19 -12
-38 -18 -42 -13 -4 5 -18 36 -31 69 -65 169 -184 314 -333 405 l-87 53 75 75
c77 77 145 189 145 238 0 31 9 30 56 -4z"/>
<path d="M906 1258 c-58 -33 68 -212 224 -318 l61 -41 -3 -97 -3 -97 -135 -35
c-165 -43 -211 -65 -278 -131 -53 -52 -82 -98 -108 -172 -19 -55 -37 -322 -24
-348 10 -19 32 -19 860 -19 828 0 850 0 860 19 14 27 -5 294 -25 351 -22 63
-62 128 -86 141 -16 8 -25 7 -40 -7 -25 -23 -24 -37 7 -83 33 -50 51 -122 59
-239 l7 -92 -781 0 -781 0 0 28 c0 15 5 69 10 120 10 113 40 181 104 240 63
58 107 77 267 116 94 23 148 41 156 52 9 12 13 53 13 117 0 75 3 98 13 94 117
-44 268 -52 373 -19 l62 19 4 -98 c3 -71 8 -103 19 -114 8 -9 85 -34 170 -56
85 -22 163 -42 175 -45 23 -6 54 18 54 42 0 26 -61 52 -197 85 l-133 33 0 98
0 97 59 40 c82 56 149 123 204 206 50 74 56 95 33 115 -27 22 -59 7 -85 -39
-35 -63 -134 -165 -210 -215 -107 -70 -198 -100 -311 -100 -113 0 -204 30
-311 100 -74 49 -175 151 -209 212 -24 43 -47 55 -74 40z"/>
</g>
</svg>
