<?xml version="1.0" standalone="no"?>
<!DOCTYPE svg PUBLIC "-//W3C//DTD SVG 20010904//EN"
 "http://www.w3.org/TR/2001/REC-SVG-20010904/DTD/svg10.dtd">
<svg version="1.0" xmlns="http://www.w3.org/2000/svg"
 width="300.000000pt" height="300.000000pt" viewBox="0 0 300.000000 300.000000"
 preserveAspectRatio="xMidYMid meet">
<metadata>
Created by potrace 1.10, written by Peter Selinger 2001-2011
</metadata>
<g transform="translate(0.000000,300.000000) scale(0.100000,-0.100000)"
fill="#000000" stroke="none">
<path d="M1413 2976 c-71 -34 -106 -87 -111 -171 -4 -59 -6 -64 -34 -76 -16
-6 -55 -37 -86 -68 -95 -94 -142 -203 -142 -331 0 -77 9 -90 62 -90 l38 0 0
-45 c0 -148 68 -269 187 -333 214 -114 472 3 522 236 6 29 11 71 11 92 0 40 0
40 38 40 53 0 62 13 62 95 0 84 -18 154 -56 226 -33 61 -129 160 -172 178 -28
12 -30 17 -34 76 -5 84 -40 137 -111 171 -29 13 -68 24 -87 24 -19 0 -58 -11
-87 -24z m146 -92 c20 -15 51 -69 51 -91 0 -4 -49 -8 -110 -8 -60 0 -110 4
-110 8 0 22 31 76 51 91 13 9 39 16 59 16 20 0 46 -7 59 -16z m81 -217 c108
-40 200 -159 224 -289 6 -33 4 -38 -12 -38 -27 0 -90 45 -135 96 -21 24 -48
44 -58 44 -11 0 -40 -11 -64 -25 -95 -52 -296 -109 -415 -117 l-45 -3 3 39 c5
67 41 143 93 201 104 114 257 148 409 92z m52 -342 c28 -25 54 -45 59 -45 5 0
9 -37 9 -82 -1 -135 -59 -227 -167 -268 -68 -25 -118 -25 -186 0 -103 39 -166
134 -167 253 0 59 2 67 19 67 56 0 279 67 347 104 16 8 31 15 33 16 1 0 26
-20 53 -45z"/>
<path d="M1110 1800 c-100 -21 -204 -92 -258 -177 -52 -82 -57 -102 -107 -503
l-15 -115 -149 -149 c-144 -144 -150 -148 -167 -131 -81 80 -228 45 -286 -68
-58 -114 10 -260 134 -287 18 -3 32 -11 31 -16 -1 -5 -10 -29 -19 -54 -34 -97
7 -207 100 -265 l49 -30 1077 0 1077 0 49 30 c60 38 105 107 111 173 4 42 -4
79 -32 145 -6 14 -2 17 21 17 38 0 108 44 133 83 70 113 28 252 -91 301 -21 9
-51 16 -68 16 -39 0 -99 -25 -116 -48 -12 -15 -28 -2 -163 133 l-151 150 -25
195 c-14 107 -30 224 -36 259 -28 175 -159 310 -332 342 -71 13 -107 6 -138
-27 -20 -21 -24 -38 -29 -135 -6 -100 -10 -114 -36 -152 -86 -121 -262 -121
-348 0 -26 38 -30 52 -36 153 -6 101 -8 113 -32 136 -29 29 -80 38 -148 24z
m82 -177 c6 -115 33 -177 104 -242 62 -57 123 -81 204 -81 81 0 142 24 204 81
72 65 98 127 104 243 l5 88 45 -6 c25 -3 48 -8 51 -11 6 -7 -7 -137 -54 -530
-24 -196 -34 -319 -30 -354 3 -30 21 -116 40 -192 19 -76 35 -143 35 -148 0
-8 -127 -11 -400 -11 -273 0 -400 3 -400 11 0 5 16 72 35 148 19 76 37 162 40
192 6 47 -27 362 -75 729 -5 41 -10 94 -10 117 0 44 5 48 71 52 26 1 27 1 31
-86z m-180 -142 l15 -134 -42 -207 c-23 -113 -48 -217 -55 -231 -7 -13 -107
-120 -223 -236 l-211 -213 -112 0 c-106 0 -114 1 -143 26 -78 65 -30 192 69
182 18 -2 36 -10 40 -18 52 -114 47 -116 267 102 101 101 189 191 194 200 9
18 16 60 54 346 14 108 32 200 43 225 23 51 72 111 82 100 4 -4 14 -68 22
-142z m1073 54 c19 -38 31 -94 50 -235 38 -288 45 -330 54 -348 5 -9 93 -99
194 -200 220 -218 215 -216 267 -102 10 21 76 25 104 6 56 -36 58 -126 5 -170
-29 -25 -37 -26 -143 -26 l-112 0 -211 213 c-116 116 -216 223 -223 236 -7 14
-32 118 -55 231 l-42 207 14 129 c8 71 16 135 19 143 7 22 50 -23 79 -84z
m-1006 -670 c1 -51 -11 -117 -41 -237 l-41 -168 -180 0 -181 0 171 173 c194
196 214 226 249 362 7 29 8 29 15 -15 4 -25 8 -76 8 -115z m877 89 c24 -94 57
-139 237 -321 l171 -173 -181 0 -180 0 -41 168 c-26 103 -42 190 -42 227 0 66
11 168 17 162 2 -2 10 -31 19 -63z m-1126 -621 c0 -43 41 -106 80 -125 19 -9
112 -33 205 -54 94 -20 174 -41 180 -45 5 -5 -182 -9 -424 -9 l-433 0 -39 39
c-35 35 -39 44 -39 91 0 47 4 56 39 91 l39 39 196 0 196 0 0 -27z m470 -41 c0
-38 -2 -71 -5 -74 -8 -8 -333 68 -350 82 -8 7 -15 23 -15 36 l0 24 185 0 185
0 0 -68z m1301 29 c35 -35 39 -44 39 -91 0 -47 -4 -56 -39 -91 l-39 -39 -586
0 -586 0 0 130 0 130 586 0 586 0 39 -39z"/>
</g>
</svg>
