<?xml version="1.0" standalone="no"?>
<!DOCTYPE svg PUBLIC "-//W3C//DTD SVG 20010904//EN"
 "http://www.w3.org/TR/2001/REC-SVG-20010904/DTD/svg10.dtd">
<svg version="1.0" xmlns="http://www.w3.org/2000/svg"
 width="300.000000pt" height="300.000000pt" viewBox="0 0 300.000000 300.000000"
 preserveAspectRatio="xMidYMid meet">
<metadata>
Created by potrace 1.10, written by Peter Selinger 2001-2011
</metadata>
<g transform="translate(0.000000,300.000000) scale(0.100000,-0.100000)"
fill="#000000" stroke="none">
<path d="M1320 2990 c-662 -91 -1168 -569 -1297 -1225 -27 -137 -24 -416 6
-555 97 -458 378 -832 780 -1039 134 -68 253 -111 401 -142 151 -33 429 -33
580 0 148 31 267 74 401 142 401 207 682 581 780 1039 19 87 23 136 23 290 0
154 -4 203 -23 290 -66 312 -190 540 -416 765 -224 225 -465 356 -763 416
-112 22 -371 33 -472 19z m140 -124 l0 -53 -75 -6 c-147 -13 -320 -60 -437
-118 -32 -16 -61 -29 -65 -29 -14 0 -54 83 -45 92 5 5 51 27 103 50 107 46
284 94 397 107 133 15 122 18 122 -43z m290 28 c47 -8 123 -26 169 -40 96 -29
255 -100 249 -111 -24 -52 -43 -83 -50 -83 -5 0 -34 13 -66 29 -117 59 -360
121 -474 121 l-38 0 0 55 0 56 63 -6 c34 -4 100 -13 147 -21z m-5 -188 c406
-90 724 -350 885 -724 199 -461 96 -989 -264 -1348 -248 -249 -568 -375 -911
-361 -313 13 -577 125 -799 337 -191 182 -307 390 -364 654 -24 113 -23 359 1
476 52 242 153 434 321 608 200 207 415 320 701 368 100 17 333 11 430 -10z
m-961 -48 l25 -41 -72 -50 c-92 -65 -239 -212 -304 -304 l-50 -72 -41 25 c-23
14 -42 29 -42 33 0 22 115 167 200 251 84 85 229 200 251 200 4 0 19 -19 33
-42z m1511 15 c76 -50 194 -154 258 -226 64 -72 147 -183 147 -198 0 -4 -19
-19 -42 -33 l-41 -25 -50 72 c-65 92 -212 239 -304 304 l-72 50 25 41 c14 23
28 42 32 42 4 0 25 -12 47 -27z m-1992 -528 c20 -10 37 -22 37 -27 0 -5 -13
-34 -29 -66 -58 -117 -105 -290 -118 -437 l-6 -75 -54 0 -54 0 6 63 c12 112
37 241 66 330 34 104 95 240 106 235 5 -2 25 -12 46 -23z m2482 -48 c67 -144
115 -329 129 -489 l5 -68 -54 0 -55 0 0 38 c0 116 -54 327 -118 466 -20 44
-32 81 -27 83 6 2 24 12 40 22 17 11 34 20 38 20 5 1 24 -32 42 -72z m-2595
-674 c0 -115 62 -358 121 -475 16 -32 29 -61 29 -66 0 -7 -31 -26 -83 -50 -11
-5 -72 131 -106 235 -29 89 -54 218 -66 331 l-6 62 56 0 55 0 0 -37z m2724
-30 c-8 -95 -41 -255 -70 -342 -32 -96 -91 -224 -101 -219 -52 24 -83 43 -83
50 0 5 13 34 29 66 59 117 121 360 121 475 l0 37 55 0 54 0 -5 -67z m-2340
-819 c50 -50 123 -113 163 -141 l72 -50 -25 -41 c-14 -23 -29 -42 -34 -42 -18
0 -179 128 -251 199 -71 72 -199 233 -199 251 0 5 19 20 42 34 l41 25 50 -72
c28 -40 91 -113 141 -163z m2123 179 c6 -17 -115 -173 -196 -254 -72 -71 -233
-199 -251 -199 -5 0 -20 19 -34 42 l-25 41 72 50 c91 64 249 222 307 309 l45
67 40 -24 c21 -12 41 -27 42 -32z m-1749 -442 c117 -59 360 -121 475 -121 l37
0 0 -55 0 -54 -67 5 c-95 8 -255 41 -342 70 -96 32 -224 91 -219 101 24 52 43
83 50 83 5 0 34 -13 66 -29z m1197 -8 c11 -21 21 -41 23 -46 5 -10 -123 -69
-219 -101 -87 -29 -247 -62 -341 -70 l-68 -5 0 54 0 55 38 0 c114 0 377 68
482 125 25 13 50 24 56 25 6 0 19 -17 29 -37z"/>
<path d="M1430 2596 c-35 -24 -67 -51 -72 -59 -21 -39 27 -69 67 -43 13 9 27
16 30 16 3 0 5 -40 5 -90 l0 -90 -45 0 c-52 0 -74 -24 -55 -60 10 -18 21 -20
140 -20 119 0 130 2 140 20 19 36 -3 60 -55 60 l-45 0 0 145 c0 132 -2 145
-19 155 -26 13 -19 16 -91 -34z"/>
<path d="M580 2141 c-6 -11 -10 -87 -10 -175 0 -201 -4 -196 148 -196 148 0
152 3 152 120 0 116 -4 120 -121 120 l-89 0 0 35 0 35 95 0 c92 0 96 1 107 25
21 47 1 55 -143 55 -117 0 -129 -2 -139 -19z m208 -248 l3 -33 -65 0 -66 0 0
35 0 36 63 -3 c62 -3 62 -3 65 -35z"/>
<path d="M2150 2141 c-14 -28 -13 -104 3 -125 8 -11 23 -17 38 -14 20 2 25 9
27 41 l3 37 65 0 c61 0 64 -1 64 -25 0 -20 -17 -36 -92 -86 -110 -73 -118 -82
-118 -130 0 -58 23 -69 150 -69 79 0 111 4 128 16 52 36 15 67 -89 74 l-78 5
75 50 c113 75 114 76 114 146 0 99 0 99 -150 99 -118 0 -130 -2 -140 -19z"/>
<path d="M1360 2124 c-234 -50 -436 -254 -485 -489 -95 -454 306 -855 760
-760 238 50 440 252 490 490 95 456 -309 857 -765 759z m252 -79 c141 -29 282
-126 358 -245 103 -161 114 -371 28 -548 -44 -91 -159 -206 -250 -250 -224
-109 -463 -69 -639 107 -140 140 -194 316 -154 503 23 112 68 193 154 278 142
142 316 195 503 155z"/>
<path d="M1473 1988 c-6 -7 -32 -62 -58 -123 -27 -60 -51 -113 -54 -117 -3 -3
-58 0 -121 7 -63 8 -123 14 -132 15 -17 0 -48 -25 -48 -40 0 -4 36 -58 80
-119 l79 -112 -79 -110 c-44 -61 -80 -115 -80 -119 0 -15 31 -40 48 -40 9 1
69 7 132 15 63 7 118 10 121 7 3 -4 27 -56 54 -117 56 -131 65 -143 97 -128
16 8 38 44 72 124 27 63 52 117 55 121 3 3 58 0 121 -7 63 -8 123 -14 132 -15
17 0 48 25 48 40 0 4 -36 58 -80 119 l-80 111 80 111 c44 61 80 115 80 119 0
15 -31 40 -48 40 -9 -1 -69 -7 -132 -15 -63 -7 -118 -10 -121 -7 -3 4 -27 57
-53 117 -46 106 -66 135 -92 135 -6 0 -16 -6 -21 -12z m74 -238 l41 -90 44 1
c24 0 70 4 103 8 33 5 62 7 64 5 2 -1 -22 -38 -53 -81 -31 -42 -56 -84 -56
-93 0 -9 25 -51 56 -93 31 -43 55 -80 53 -81 -2 -2 -31 0 -64 5 -33 4 -79 8
-103 8 l-44 1 -41 -90 c-22 -49 -44 -90 -47 -90 -3 0 -25 41 -47 90 l-41 90
-44 -1 c-24 0 -70 -4 -103 -8 -33 -5 -62 -7 -64 -5 -2 1 22 38 53 81 31 42 56
84 56 93 0 9 -25 51 -56 93 -31 43 -55 80 -53 81 2 2 31 0 64 -5 33 -4 79 -8
103 -8 l44 -1 41 90 c22 50 44 90 47 90 3 0 25 -40 47 -90z"/>
<path d="M638 1149 c-15 -8 -18 -25 -18 -107 0 -63 4 -102 12 -110 8 -8 45
-12 100 -12 73 0 90 -3 95 -16 14 -36 -10 -49 -102 -54 -69 -4 -90 -9 -99 -22
-8 -13 -8 -23 0 -35 9 -15 29 -18 113 -21 l102 -3 35 35 c29 29 34 41 34 81 0
40 -5 52 -34 81 -32 32 -38 34 -105 34 l-71 0 0 35 0 35 86 0 c97 0 124 10
124 45 0 14 -8 29 -19 35 -25 13 -230 13 -253 -1z"/>
<path d="M2128 1149 c-23 -13 -26 -120 -3 -139 22 -18 55 -2 62 31 5 28 7 29
69 29 70 0 87 -18 36 -39 -15 -6 -40 -22 -56 -34 -39 -31 -29 -57 34 -91 71
-39 66 -56 -15 -56 -62 0 -65 1 -65 24 0 30 -22 49 -52 44 -21 -3 -23 -9 -26
-67 -2 -45 1 -67 10 -72 21 -14 252 -11 266 3 7 7 12 39 12 74 0 61 -10 84
-42 97 -9 4 -4 13 15 27 24 20 27 28 27 85 0 91 -6 95 -143 95 -62 0 -120 -5
-129 -11z"/>
<path d="M1421 752 c-5 -10 -24 -53 -40 -96 -44 -108 -39 -114 87 -118 l97 -3
3 -67 c2 -56 6 -70 23 -79 16 -8 25 -7 40 7 17 15 19 32 19 176 0 91 -4 168
-10 179 -6 11 -21 19 -36 19 -30 0 -44 -31 -44 -101 l0 -49 -50 0 c-27 0 -50
4 -50 9 0 5 7 25 15 44 27 65 17 97 -30 97 -8 0 -19 -8 -24 -18z"/>
</g>
</svg>
