<?xml version="1.0" standalone="no"?>
<!DOCTYPE svg PUBLIC "-//W3C//DTD SVG 20010904//EN"
 "http://www.w3.org/TR/2001/REC-SVG-20010904/DTD/svg10.dtd">
<svg version="1.0" xmlns="http://www.w3.org/2000/svg"
 width="300.000000pt" height="300.000000pt" viewBox="0 0 300.000000 300.000000"
 preserveAspectRatio="xMidYMid meet">
<metadata>
Created by potrace 1.10, written by Peter Selinger 2001-2011
</metadata>
<g transform="translate(0.000000,300.000000) scale(0.100000,-0.100000)"
fill="#000000" stroke="none">
<path d="M1015 2981 c-121 -56 -165 -180 -110 -311 14 -33 25 -64 25 -69 0 -5
-84 -80 -187 -167 -293 -246 -332 -282 -361 -338 l-27 -51 -5 -290 -5 -290
-82 -156 c-46 -86 -83 -165 -83 -177 0 -27 33 -46 58 -33 10 5 58 85 107 178
l89 168 6 295 c5 279 6 297 26 329 21 32 464 415 472 407 2 -2 -1 -36 -6 -74
-10 -69 -12 -72 -96 -171 -47 -56 -89 -113 -92 -127 -9 -36 52 -409 72 -439
30 -45 143 -58 198 -22 12 8 48 58 79 110 69 115 95 130 151 86 36 -28 33 -53
-19 -176 -25 -58 -45 -113 -45 -123 0 -24 24 -42 51 -38 18 2 32 26 76 128 29
69 53 140 53 158 0 95 -99 176 -195 158 -51 -10 -87 -45 -146 -146 l-54 -91
-40 3 -39 3 -28 160 c-15 88 -27 172 -27 186 -1 17 13 42 37 70 l39 43 6 -110
c3 -60 9 -117 12 -126 8 -19 59 -25 70 -9 3 5 7 101 10 213 2 112 9 226 14
253 18 92 13 184 -15 260 -35 94 -40 144 -19 184 48 93 186 92 237 -2 5 -10
11 -58 12 -105 3 -99 23 -148 82 -206 49 -47 92 -62 266 -90 174 -28 235 -53
313 -127 76 -72 115 -156 122 -258 4 -64 -4 -115 -46 -325 -54 -263 -54 -286
-7 -286 35 0 42 14 65 129 12 58 22 106 24 107 2 2 29 -29 62 -68 l58 -72 -28
-175 c-15 -97 -29 -179 -32 -183 -2 -5 -21 -8 -43 -8 -37 0 -39 2 -84 78 -75
127 -114 158 -198 150 -80 -8 -137 -63 -145 -140 -5 -39 4 -67 72 -224 42 -98
90 -200 106 -226 44 -68 135 -149 213 -189 62 -31 74 -43 157 -156 69 -94 96
-123 113 -123 26 0 46 17 46 40 0 8 -43 74 -95 145 -89 120 -99 131 -165 165
-93 50 -131 80 -176 141 -43 58 -184 376 -184 414 0 36 33 65 73 65 40 0 48
-8 115 -121 57 -95 77 -109 152 -109 61 0 95 12 114 42 20 30 82 405 73 438
-4 14 -45 70 -93 125 l-85 100 6 54 c3 29 8 58 11 62 6 11 423 -343 446 -379
14 -21 18 -49 18 -134 0 -83 3 -110 16 -122 18 -19 28 -20 55 -6 17 10 19 22
19 128 -1 173 8 161 -287 413 l-248 212 -7 56 c-7 49 -23 109 -43 163 -4 11 0
18 13 22 37 12 92 78 107 129 32 107 -36 207 -140 207 -29 0 -35 4 -35 21 0
33 -37 85 -78 111 -26 16 -52 22 -89 22 -29 0 -53 3 -53 7 0 15 -54 70 -83 86
-17 8 -53 15 -81 15 -47 0 -53 3 -88 43 -65 74 -175 96 -246 49 -21 -14 -25
-14 -41 0 -31 28 -106 56 -151 56 -25 0 -63 -9 -85 -19z m434 -117 c81 -57 78
-236 -5 -290 -24 -16 -27 -16 -52 2 -47 34 -71 98 -73 193 -2 72 1 86 16 98
26 18 86 16 114 -3z m221 -109 c62 -32 65 -142 4 -203 -32 -32 -37 -34 -82
-27 -26 4 -48 8 -50 9 -1 2 9 24 24 49 15 29 27 69 31 104 2 32 6 64 9 71 5
16 29 15 64 -3z m225 -118 c38 -32 43 -89 13 -147 -13 -25 -28 -44 -33 -43 -8
1 -107 41 -123 49 -1 1 9 21 23 45 13 24 25 52 25 62 0 57 49 74 95 34z m185
-147 c42 -23 29 -106 -25 -148 -36 -29 -45 -27 -79 14 -26 32 -27 36 -13 52 9
10 23 34 32 55 12 29 21 37 41 37 14 0 34 -4 44 -10z"/>
<path d="M1140 2158 c-27 -15 -38 -54 -21 -71 7 -7 37 -10 72 -9 86 5 152 -20
209 -78 65 -64 85 -125 76 -236 l-7 -83 26 -7 c32 -8 52 8 65 55 43 155 -47
335 -202 406 -69 31 -180 43 -218 23z"/>
<path d="M1703 1630 c-26 -11 -39 -46 -23 -65 16 -19 180 -21 198 -3 19 19 14
45 -10 62 -25 18 -127 21 -165 6z"/>
<path d="M1485 1489 c-25 -33 -52 -84 -60 -112 -40 -133 4 -328 71 -315 34 6
40 33 19 89 -38 108 -18 217 58 307 42 49 41 47 27 73 -7 12 -21 19 -40 19
-25 0 -37 -10 -75 -61z"/>
<path d="M1058 1346 c-42 -46 -78 -74 -137 -105 -77 -40 -82 -45 -176 -171
-98 -133 -109 -161 -72 -184 26 -17 43 -2 139 127 81 107 93 118 160 154 81
42 193 146 204 188 4 15 1 31 -6 40 -24 29 -54 16 -112 -49z"/>
<path d="M1123 1158 c-5 -8 -7 -109 -5 -236 4 -206 5 -223 23 -233 29 -15 57
5 65 47 11 58 -1 386 -14 412 -14 24 -54 30 -69 10z"/>
<path d="M2570 1131 c-5 -11 -10 -63 -10 -115 l0 -96 93 -180 c70 -138 97
-182 115 -186 27 -7 52 11 52 37 0 11 -38 93 -85 183 l-85 163 0 94 c0 61 -4
99 -12 107 -18 18 -56 14 -68 -7z"/>
<path d="M1110 554 c-17 -43 -12 -186 8 -251 24 -74 49 -115 112 -178 194
-199 539 -150 669 94 32 60 81 235 81 289 0 32 -16 52 -41 52 -28 0 -39 -24
-64 -136 -14 -59 -34 -126 -45 -148 -28 -59 -96 -125 -160 -155 -47 -22 -69
-26 -145 -26 -109 0 -163 22 -241 100 -71 71 -94 135 -94 263 0 104 -7 122
-47 122 -16 0 -27 -8 -33 -26z"/>
</g>
</svg>
