<?xml version="1.0" standalone="no"?>
<!DOCTYPE svg PUBLIC "-//W3C//DTD SVG 20010904//EN"
 "http://www.w3.org/TR/2001/REC-SVG-20010904/DTD/svg10.dtd">
<svg version="1.0" xmlns="http://www.w3.org/2000/svg"
 width="300.000000pt" height="300.000000pt" viewBox="0 0 300.000000 300.000000"
 preserveAspectRatio="xMidYMid meet">
<metadata>
Created by potrace 1.10, written by Peter Selinger 2001-2011
</metadata>
<g transform="translate(0.000000,300.000000) scale(0.100000,-0.100000)"
fill="#000000" stroke="none">
<path d="M1040 2958 c-63 -65 -168 -229 -210 -326 -49 -113 -72 -216 -72 -322
-1 -107 15 -186 57 -277 50 -108 85 -153 245 -312 80 -80 170 -177 198 -216
105 -142 161 -283 147 -372 -7 -49 12 -83 45 -83 25 0 124 75 197 150 156 158
219 332 179 489 -31 120 -68 173 -234 336 -231 225 -336 357 -407 508 -64 135
-78 236 -50 352 18 76 18 80 -1 99 -25 26 -50 19 -94 -26z m34 -428 c66 -161
189 -322 415 -543 83 -81 167 -171 186 -200 104 -160 75 -332 -85 -501 -40
-42 -76 -74 -80 -71 -4 3 -11 22 -15 42 -26 141 -138 307 -355 524 -176 178
-225 245 -261 359 -29 91 -29 229 0 333 19 71 80 205 119 266 16 24 17 22 33
-60 9 -46 28 -113 43 -149z"/>
<path d="M1350 1750 l0 -50 50 0 50 0 0 50 0 50 -50 0 -50 0 0 -50z"/>
<path d="M1500 1600 l0 -50 50 0 50 0 0 50 0 50 -50 0 -50 0 0 -50z"/>
<path d="M1466 2984 c-9 -8 -16 -27 -16 -42 -1 -66 -77 -142 -142 -142 -31 0
-58 -23 -58 -50 0 -26 27 -50 56 -50 44 0 102 -37 124 -80 11 -21 20 -50 20
-63 0 -27 28 -57 53 -57 23 0 47 28 47 56 0 44 37 102 80 124 21 11 50 20 64
20 29 0 56 24 56 50 0 27 -27 50 -58 50 -65 0 -141 76 -142 142 0 31 -23 58
-50 58 -10 0 -26 -7 -34 -16z m60 -215 l22 -20 -25 -25 c-14 -14 -26 -24 -27
-22 -1 2 -10 13 -20 26 -18 21 -18 23 -1 42 22 25 24 25 51 -1z"/>
<path d="M1965 2983 c-13 -12 -15 -24 -8 -52 14 -60 8 -153 -11 -191 -36 -70
-98 -140 -197 -226 -78 -67 -107 -99 -125 -138 -50 -108 -23 -214 82 -321 74
-75 127 -109 158 -101 25 6 30 15 40 78 11 62 80 151 197 253 128 113 159 162
167 266 9 122 -49 246 -173 376 -73 76 -99 87 -130 56z m172 -281 c14 -29 27
-80 30 -112 8 -85 -19 -134 -118 -217 -99 -81 -170 -161 -206 -229 l-28 -53
-38 37 c-47 45 -77 101 -77 142 0 56 26 95 103 158 150 123 219 218 264 362 6
21 39 -20 70 -88z"/>
<path d="M2476 2478 c-125 -74 -86 -259 58 -275 83 -10 154 47 163 131 14 121
-116 206 -221 144z m108 -94 c30 -29 9 -84 -31 -84 -21 0 -53 29 -53 48 0 22
30 52 51 52 10 0 25 -7 33 -16z"/>
<path d="M2050 2000 l0 -50 50 0 50 0 0 50 0 50 -50 0 -50 0 0 -50z"/>
<path d="M428 1979 c-43 -22 -78 -81 -78 -131 0 -46 38 -107 80 -129 129 -69
268 68 201 199 -38 75 -127 102 -203 61z m106 -95 c31 -30 9 -84 -34 -84 -23
0 -50 26 -50 47 0 23 29 53 51 53 10 0 25 -7 33 -16z"/>
<path d="M2471 1891 c-7 -5 -17 -30 -22 -55 -5 -26 -18 -60 -29 -75 -22 -32
-76 -61 -113 -61 -30 0 -57 -24 -57 -50 0 -26 27 -50 56 -50 14 0 43 -9 64
-20 43 -22 80 -80 80 -124 0 -29 24 -56 50 -56 27 0 50 27 50 58 0 65 76 141
142 142 31 0 58 23 58 49 0 26 -29 47 -73 54 -69 11 -127 74 -127 139 0 42
-45 70 -79 49z m53 -216 l25 -25 -24 -25 -25 -24 -23 23 -23 23 20 26 c12 14
22 26 23 26 1 1 13 -10 27 -24z"/>
<path d="M750 1600 l0 -50 50 0 50 0 0 50 0 50 -50 0 -50 0 0 -50z"/>
<path d="M816 1384 c-9 -8 -16 -27 -16 -42 -1 -66 -77 -142 -142 -142 -31 0
-58 -23 -58 -50 0 -26 27 -50 57 -50 66 0 129 -58 140 -127 7 -44 28 -73 54
-73 25 0 49 27 49 56 0 44 37 102 80 124 21 11 50 20 64 20 29 0 56 24 56 50
0 26 -27 50 -56 50 -44 0 -102 37 -124 80 -11 21 -20 50 -20 64 0 29 -24 56
-50 56 -10 0 -26 -7 -34 -16z m59 -256 l-20 -26 -24 24 -25 23 23 25 22 24 23
-22 22 -21 -21 -27z"/>
<path d="M2050 1350 l0 -50 50 0 50 0 0 50 0 50 -50 0 -50 0 0 -50z"/>
<path d="M300 1100 l0 -50 50 0 50 0 0 50 0 50 -50 0 -50 0 0 -50z"/>
<path d="M1778 1129 c-103 -54 -100 -213 6 -263 46 -21 89 -20 136 4 45 23 80
80 80 130 0 50 -35 107 -80 130 -49 25 -94 25 -142 -1z m104 -96 c22 -20 23
-46 2 -67 -30 -31 -84 -9 -84 34 0 23 26 50 47 50 9 0 25 -7 35 -17z"/>
<path d="M1250 850 l0 -50 50 0 50 0 0 50 0 50 -50 0 -50 0 0 -50z"/>
<path d="M117 785 c-15 -14 -17 -46 -17 -251 l0 -234 -34 0 c-59 0 -66 -16
-66 -150 0 -94 3 -122 16 -134 14 -14 87 -16 659 -16 705 0 675 -3 675 58 1
70 77 142 150 142 73 0 149 -72 150 -142 0 -61 -30 -58 675 -58 572 0 645 2
659 16 13 12 16 40 16 134 0 134 -7 150 -66 150 l-34 0 0 234 c0 281 4 271
-104 261 -497 -47 -1018 -163 -1215 -271 -55 -31 -107 -31 -162 0 -167 92
-533 183 -962 240 -288 38 -321 41 -340 21z m263 -110 c175 -22 403 -61 550
-95 127 -28 348 -96 363 -110 5 -4 -12 -19 -37 -34 -25 -14 -67 -51 -93 -81
l-48 -55 -457 0 -458 0 0 50 0 50 300 0 300 0 0 50 0 50 -300 0 -300 0 0 95 0
95 28 0 c15 0 84 -7 152 -15z m2420 -80 l0 -95 -300 0 -300 0 0 -50 0 -50 300
0 300 0 0 -50 0 -50 -457 0 -458 0 -48 55 c-26 30 -68 67 -93 81 -25 15 -42
30 -37 34 16 16 222 78 354 109 209 47 590 108 697 110 l42 1 0 -95z m-1200
-206 c64 -14 135 -61 177 -119 18 -25 38 -51 44 -57 7 -10 89 -13 344 -13
l335 0 0 -50 0 -50 -379 0 -378 0 -6 29 c-16 77 -121 159 -216 169 -105 10
-224 -65 -252 -157 l-12 -41 -379 0 -378 0 0 50 0 50 335 0 c255 0 337 3 344
13 6 6 26 32 44 57 80 109 219 153 377 119z m-1200 -239 l0 -50 -150 0 -150 0
0 50 0 50 150 0 150 0 0 -50z m2500 0 l0 -50 -150 0 -150 0 0 50 0 50 150 0
150 0 0 -50z"/>
<path d="M2000 450 l0 -50 50 0 50 0 0 50 0 50 -50 0 -50 0 0 -50z"/>
</g>
</svg>
