<?xml version="1.0" standalone="no"?>
<!DOCTYPE svg PUBLIC "-//W3C//DTD SVG 20010904//EN"
 "http://www.w3.org/TR/2001/REC-SVG-20010904/DTD/svg10.dtd">
<svg version="1.0" xmlns="http://www.w3.org/2000/svg"
 width="300.000000pt" height="300.000000pt" viewBox="0 0 300.000000 300.000000"
 preserveAspectRatio="xMidYMid meet">
<metadata>
Created by potrace 1.10, written by Peter Selinger 2001-2011
</metadata>
<g transform="translate(0.000000,300.000000) scale(0.100000,-0.100000)"
fill="#000000" stroke="none">
<path d="M1206 2984 c-24 -23 -20 -70 6 -88 19 -14 72 -16 370 -16 l348 0 0
-99 0 -98 -62 -5 c-302 -26 -530 -329 -478 -637 17 -104 77 -219 154 -295 90
-90 201 -142 339 -161 l47 -6 0 -162 c0 -208 0 -207 111 -207 332 0 628 234
711 562 17 67 19 102 16 202 -6 140 -33 239 -95 346 -49 83 -180 214 -263 263
-81 47 -204 87 -292 94 l-68 6 0 138 c0 126 -2 141 -20 159 -19 19 -33 20
-414 20 -345 0 -397 -2 -410 -16z m724 -542 l0 -128 -44 -12 c-88 -23 -146
-99 -146 -192 0 -93 58 -169 145 -191 l45 -11 0 -104 c0 -120 3 -117 -103 -89
-79 21 -131 49 -189 103 -225 210 -165 579 114 707 31 14 76 30 100 34 84 17
78 26 78 -117z m300 92 c288 -92 469 -394 416 -694 -42 -236 -224 -433 -456
-495 -30 -8 -74 -15 -97 -15 l-43 0 0 124 0 125 58 11 c78 17 127 43 183 101
101 104 127 295 57 432 -46 92 -152 167 -255 183 l-43 6 0 129 0 130 53 -7
c28 -4 86 -17 127 -30z m-300 -424 c0 -59 -3 -80 -13 -80 -20 0 -56 37 -63 64
-6 26 17 81 38 89 35 14 38 7 38 -73z m205 61 c46 -21 90 -62 112 -106 22 -41
29 -153 13 -201 -25 -79 -98 -146 -172 -159 l-38 -7 0 246 0 246 23 0 c12 0
40 -9 62 -19z"/>
<path d="M991 1169 c-157 -31 -221 -69 -631 -377 -266 -200 -356 -273 -358
-290 -5 -31 24 -62 57 -62 18 1 135 82 381 266 195 145 382 278 415 294 84 41
165 60 263 60 108 0 149 -11 311 -81 l134 -59 194 0 c214 0 240 -6 268 -60 19
-38 19 -75 -1 -109 -32 -55 -37 -56 -339 -59 -239 -3 -282 -6 -297 -19 -23
-21 -23 -56 1 -77 17 -15 48 -17 337 -14 l319 3 345 148 c388 165 401 168 456
113 26 -26 34 -42 34 -70 0 -63 -22 -89 -105 -129 -42 -21 -80 -37 -86 -37
-18 0 -49 -40 -49 -63 0 -34 33 -61 67 -54 44 9 178 74 214 104 17 15 42 50
55 78 75 160 -54 341 -229 322 -35 -4 -138 -42 -312 -116 -143 -61 -264 -111
-270 -111 -5 0 -10 21 -11 48 -1 78 -51 154 -129 195 -36 19 -61 22 -250 27
l-210 5 -115 51 c-63 28 -147 59 -187 68 -76 17 -199 19 -272 5z"/>
<path d="M2440 493 c-40 -14 -53 -69 -22 -96 25 -23 58 -21 82 3 26 26 25 46
-5 75 -25 26 -29 27 -55 18z"/>
<path d="M2095 338 c-60 -28 -153 -62 -205 -76 l-95 -25 -550 -4 -550 -4 -44
-42 c-52 -50 -101 -115 -101 -134 0 -20 37 -53 61 -53 12 0 48 26 83 60 l63
60 510 0 c626 0 645 3 908 125 97 45 116 66 95 104 -10 20 -41 42 -57 40 -4 0
-57 -23 -118 -51z"/>
</g>
</svg>
