<?xml version="1.0" standalone="no"?>
<!DOCTYPE svg PUBLIC "-//W3C//DTD SVG 20010904//EN"
 "http://www.w3.org/TR/2001/REC-SVG-20010904/DTD/svg10.dtd">
<svg version="1.0" xmlns="http://www.w3.org/2000/svg"
 width="300.000000pt" height="300.000000pt" viewBox="0 0 300.000000 300.000000"
 preserveAspectRatio="xMidYMid meet">
<metadata>
Created by potrace 1.10, written by Peter Selinger 2001-2011
</metadata>
<g transform="translate(0.000000,300.000000) scale(0.100000,-0.100000)"
fill="#000000" stroke="none">
<path d="M1510 2948 c-61 -32 -83 -66 -88 -137 l-4 -58 -43 5 c-36 4 -142 -27
-647 -188 -331 -106 -615 -198 -629 -206 -42 -21 -77 -70 -84 -117 -5 -37 35
-172 324 -1080 182 -570 335 -1046 341 -1057 17 -32 77 -72 118 -77 31 -4 157
32 658 192 619 197 674 218 689 265 6 19 15 20 349 20 229 0 354 4 377 11 47
16 97 66 109 109 6 22 10 439 10 1121 l0 1086 -23 43 c-16 30 -37 51 -67 67
l-43 23 -651 0 -652 0 -44 -22z m1396 -62 l34 -34 0 -1101 c0 -1210 3 -1143
-60 -1176 -43 -22 -1306 -23 -1350 0 -64 33 -60 -51 -60 1168 l0 1109 34 34
34 34 667 0 667 0 34 -34z m-1512 -176 c25 -9 26 -13 26 -82 0 -65 -2 -70 -13
-48 -7 13 -24 31 -39 39 -25 14 -41 10 -293 -69 -147 -47 -270 -91 -272 -98
-15 -38 22 -31 275 49 218 69 264 80 276 69 9 -7 27 -48 41 -92 24 -76 25 -88
25 -354 0 -150 -2 -274 -5 -274 -2 0 -20 11 -40 25 -67 45 -143 67 -248 73
-176 9 -310 -41 -427 -157 -226 -226 -220 -579 13 -803 60 -58 191 -125 260
-134 43 -6 47 -5 47 14 0 15 -8 23 -27 28 -68 14 -150 51 -204 90 -250 185
-281 544 -66 765 108 110 216 154 372 153 115 -1 186 -22 273 -79 50 -34 52
-37 52 -81 l0 -47 -27 28 c-128 128 -366 154 -532 57 -24 -14 -65 -47 -91 -73
-53 -53 -116 -169 -106 -194 10 -27 38 -12 52 27 31 91 114 176 220 225 51 24
71 28 154 28 86 0 101 -3 162 -32 36 -17 89 -53 117 -80 49 -47 51 -52 51
-102 l0 -52 -77 2 c-43 1 -81 3 -84 5 -3 2 0 43 7 91 21 137 11 143 -90 48
-38 -36 -70 -64 -70 -63 -1 2 -26 36 -55 75 -75 103 -87 99 -95 -26 l-7 -99
-32 4 c-18 2 -59 8 -92 13 -33 5 -63 7 -67 4 -20 -11 -3 -44 52 -98 33 -33 60
-62 60 -66 0 -4 -34 -33 -75 -64 -41 -32 -75 -61 -75 -64 0 -23 31 -31 116
-31 l91 0 -7 -42 c-33 -186 -21 -200 82 -101 67 65 70 67 84 48 62 -85 107
-136 117 -132 14 4 25 68 26 145 1 59 -6 57 109 40 76 -10 82 -13 82 -35 0
-33 -75 -105 -149 -143 -109 -55 -247 -56 -357 -4 -116 55 -209 185 -221 311
-6 64 -17 85 -39 76 -28 -10 -9 -132 35 -222 125 -260 482 -334 691 -144 l40
35 0 -43 c0 -42 -3 -46 -49 -76 -27 -18 -68 -40 -92 -49 -59 -23 -66 -31 -47
-50 14 -14 22 -13 84 16 37 17 76 38 86 47 17 15 18 10 18 -141 0 -180 11
-216 77 -257 35 -22 49 -24 171 -24 73 0 125 -3 115 -7 -10 -4 -227 -73 -482
-153 -387 -123 -466 -145 -476 -133 -8 7 -154 454 -325 993 -227 712 -310 983
-303 995 6 8 33 22 62 30 57 18 77 33 66 50 -9 14 -58 6 -118 -17 -28 -12 -43
-26 -53 -49 -14 -33 -6 -59 236 -821 138 -434 280 -879 316 -991 37 -116 73
-211 85 -223 10 -10 33 -19 49 -19 17 0 270 76 563 169 492 157 538 170 619
173 l87 3 -22 -23 c-15 -16 -91 -45 -251 -97 -707 -227 -993 -315 -1023 -315
-24 0 -43 9 -67 32 -31 31 -54 98 -360 1061 -179 565 -326 1039 -326 1053 0
33 25 81 50 94 23 13 1229 399 1247 399 6 1 23 -3 37 -9z m35 -202 c-1 -41 -1
-42 -11 -15 -5 15 -7 34 -4 42 10 27 16 16 15 -27z m-349 -931 l25 -28 64 57
c43 40 62 51 57 37 -13 -42 -25 -138 -18 -145 4 -4 42 -8 85 -10 l79 -3 -61
-43 c-34 -23 -61 -50 -61 -58 0 -8 23 -40 52 -70 44 -47 48 -55 28 -49 -70 17
-130 21 -140 11 -5 -7 -10 -45 -12 -85 l-3 -73 -43 61 c-23 34 -48 61 -55 61
-7 0 -36 -23 -66 -50 -30 -28 -55 -50 -56 -50 -1 0 4 33 11 72 16 95 12 100
-83 96 -40 -2 -73 -3 -73 -2 0 1 27 22 60 48 33 26 60 53 60 59 0 7 -23 36
-50 64 -46 48 -63 72 -42 59 5 -3 37 -10 72 -15 84 -14 90 -8 90 83 l0 71 28
-35 c15 -19 38 -48 52 -63z m-260 -31 c0 -3 -4 -8 -10 -11 -5 -3 -10 -1 -10 4
0 6 5 11 10 11 6 0 10 -2 10 -4z m610 -49 c0 -7 -9 -13 -20 -13 -25 0 -26 13
-2 19 9 3 18 5 20 6 1 0 2 -5 2 -12z m-10 -134 l-1 -108 -54 60 c-30 33 -54
62 -54 65 0 4 100 88 107 89 1 1 2 -47 2 -106z m-473 -255 c-3 -8 -6 -5 -6 6
-1 11 2 17 5 13 3 -3 4 -12 1 -19z m923 -582 c0 -2 -13 -9 -30 -15 -24 -8 -30
-7 -30 5 0 9 10 14 30 14 17 0 30 -2 30 -4z"/>
<path d="M1565 2815 l-25 -24 0 -386 c0 -344 2 -386 16 -392 9 -3 20 0 25 8 5
8 9 181 9 385 0 274 3 373 12 382 18 18 1191 17 1206 -1 6 -7 13 -56 14 -108
3 -86 5 -94 23 -94 18 0 20 8 23 85 3 99 -1 123 -28 150 -19 19 -36 20 -635
20 l-616 0 -24 -25z"/>
<path d="M2187 2523 c-4 -3 -7 -48 -7 -100 0 -77 3 -95 16 -100 25 -9 34 16
34 103 0 85 -17 124 -43 97z"/>
<path d="M1894 2455 c-10 -24 57 -175 77 -175 30 0 29 14 -8 103 -34 83 -56
106 -69 72z"/>
<path d="M2471 2448 c-5 -13 -21 -52 -35 -87 -26 -64 -24 -90 7 -78 17 7 81
162 72 176 -11 19 -35 12 -44 -11z"/>
<path d="M2827 2464 c-4 -4 -7 -35 -7 -70 0 -64 16 -88 40 -59 17 21 9 129
-10 133 -9 1 -19 0 -23 -4z"/>
<path d="M1644 2289 c-9 -15 125 -149 142 -142 25 9 15 28 -49 91 -63 62 -80
72 -93 51z"/>
<path d="M2668 2241 c-57 -57 -69 -83 -47 -97 15 -9 149 125 142 142 -10 27
-38 13 -95 -45z"/>
<path d="M2111 2239 c-138 -24 -293 -139 -354 -260 -139 -278 -17 -598 273
-714 59 -23 220 -32 291 -15 162 38 305 169 360 327 75 219 -10 460 -211 593
-90 60 -244 90 -359 69z m40 -101 c-81 -134 -341 -591 -341 -599 0 -23 -19 -5
-34 31 -68 171 -22 378 114 503 80 74 185 123 272 126 l27 1 -38 -62z m170 46
c86 -26 148 -62 206 -120 119 -119 162 -293 113 -457 -13 -43 -26 -77 -29 -77
-3 0 -41 62 -83 138 -43 75 -130 226 -193 335 -127 219 -127 214 -14 181z m39
-321 c0 -2 -10 3 -22 11 -58 37 -197 38 -266 2 l-31 -16 38 63 c21 34 57 97
81 140 l42 78 79 -137 c44 -76 79 -139 79 -141z m-331 -29 c-17 -21 -31 -17
-19 6 6 11 15 18 21 14 6 -4 6 -11 -2 -20z m292 -4 c49 -25 109 -77 109 -96 0
-25 -52 -74 -107 -101 -108 -52 -233 -30 -317 56 l-38 39 21 30 c65 92 224
126 332 72z m75 13 c20 -26 17 -35 -6 -21 -11 7 -20 18 -20 25 0 18 10 16 26
-4z m-327 -257 c36 -16 66 -21 136 -21 78 0 97 4 140 27 28 14 65 42 84 62
l34 35 44 -76 c23 -42 43 -77 43 -77 0 -1 -155 -1 -345 -1 -190 0 -345 2 -345
4 0 2 18 36 41 75 l40 72 42 -40 c22 -21 61 -48 86 -60z m491 -134 c-99 -123
-270 -190 -424 -164 -116 19 -238 90 -296 173 l-21 29 386 0 386 0 -31 -38z"/>
<path d="M2158 1814 c-35 -18 -48 -43 -48 -89 0 -84 103 -119 163 -54 30 33
34 66 13 108 -15 28 -54 51 -84 51 -9 -1 -29 -7 -44 -16z m80 -46 c22 -22 15
-67 -12 -80 -31 -14 -53 -5 -68 27 -9 21 -8 28 7 45 20 22 55 26 73 8z"/>
<path d="M2827 2244 c-4 -4 -7 -353 -7 -776 l0 -769 -31 -11 c-37 -13 -36 -42
2 -46 19 -2 33 5 53 28 l26 32 -2 771 c-3 688 -5 772 -18 775 -9 1 -19 0 -23
-4z"/>
<path d="M1547 1704 c-4 -4 -7 -234 -7 -511 l0 -504 25 -24 c22 -23 32 -25
114 -25 92 0 113 8 90 37 -10 12 -28 14 -81 11 -41 -3 -74 -1 -83 6 -13 9 -15
82 -17 511 -3 442 -5 500 -18 503 -9 1 -19 0 -23 -4z"/>
<path d="M1701 1276 c-43 -44 -62 -69 -58 -80 11 -28 31 -18 96 48 43 44 62
69 58 80 -11 28 -31 18 -96 -48z"/>
<path d="M2613 1324 c-4 -11 15 -36 58 -80 63 -64 82 -74 95 -53 6 11 -122
149 -139 149 -4 0 -10 -7 -14 -16z"/>
<path d="M1936 1156 c-44 -100 -51 -125 -38 -138 18 -18 31 0 68 90 23 55 29
80 22 89 -18 22 -28 15 -52 -41z"/>
<path d="M2421 1197 c-8 -11 -4 -31 19 -88 36 -86 54 -109 72 -91 9 9 3 32
-24 99 -37 91 -47 103 -67 80z"/>
<path d="M2187 1154 c-4 -4 -7 -49 -7 -100 0 -70 3 -93 14 -97 28 -11 37 19
34 109 -2 71 -6 89 -18 92 -9 1 -19 0 -23 -4z"/>
<path d="M1903 679 c-6 -6 -9 -18 -6 -25 4 -12 70 -14 373 -14 246 0 371 3
375 10 4 6 1 17 -5 25 -11 13 -69 15 -369 15 -251 0 -360 -3 -368 -11z"/>
<path d="M585 2395 c-44 -14 -71 -29 -73 -39 -6 -26 19 -27 98 -3 59 19 75 28
75 43 0 26 -19 26 -100 -1z"/>
</g>
</svg>
