<?xml version="1.0" standalone="no"?>
<!DOCTYPE svg PUBLIC "-//W3C//DTD SVG 20010904//EN"
 "http://www.w3.org/TR/2001/REC-SVG-20010904/DTD/svg10.dtd">
<svg version="1.0" xmlns="http://www.w3.org/2000/svg"
 width="300.000000pt" height="300.000000pt" viewBox="0 0 300.000000 300.000000"
 preserveAspectRatio="xMidYMid meet">
<metadata>
Created by potrace 1.10, written by Peter Selinger 2001-2011
</metadata>
<g transform="translate(0.000000,300.000000) scale(0.100000,-0.100000)"
fill="#000000" stroke="none">
<path d="M1368 2990 c-189 -34 -346 -117 -484 -254 -72 -72 -153 -185 -189
-265 l-19 -44 39 -74 c118 -224 336 -400 572 -465 62 -17 107 -21 213 -21 106
0 151 4 213 21 236 65 454 241 572 465 l39 74 -19 44 c-36 80 -117 193 -189
265 -118 117 -241 190 -398 234 -82 24 -272 35 -350 20z m357 -144 c109 -37
203 -95 292 -179 73 -70 173 -206 173 -237 0 -8 -25 -52 -56 -97 -228 -337
-628 -446 -978 -266 -71 37 -109 66 -177 133 -82 81 -169 199 -169 229 0 27
75 137 143 208 110 115 222 183 372 224 106 29 291 22 400 -15z"/>
<path d="M1434 2770 c-102 -21 -203 -102 -247 -198 -31 -67 -31 -207 0 -274
79 -171 282 -249 450 -173 73 32 143 102 176 173 31 67 31 207 0 274 -65 141
-233 229 -379 198z m11 -137 c-46 -112 -7 -214 97 -258 47 -19 89 -19 135 0
20 8 38 14 40 12 5 -5 -18 -57 -41 -90 -55 -81 -196 -109 -286 -55 -80 47
-114 114 -108 212 3 50 10 73 33 105 41 61 150 121 130 74z m215 -43 c41 -41
10 -110 -47 -110 -34 0 -46 8 -62 37 -14 27 -5 70 18 83 27 16 70 11 91 -10z"/>
<path d="M288 2906 c-16 -8 -24 -22 -26 -45 -3 -31 5 -42 95 -132 105 -105
133 -118 166 -81 33 36 21 61 -79 162 -53 54 -104 100 -114 103 -10 3 -29 -1
-42 -7z"/>
<path d="M2665 2910 c-11 -4 -62 -51 -112 -103 -98 -100 -111 -128 -75 -160
37 -34 61 -22 164 81 81 82 98 103 98 129 0 43 -36 68 -75 53z"/>
<path d="M130 2470 c-11 -11 -20 -29 -20 -40 0 -11 9 -29 20 -40 18 -18 33
-20 193 -20 193 0 217 7 217 60 0 53 -24 60 -217 60 -160 0 -175 -2 -193 -20z"/>
<path d="M2482 2474 c-30 -20 -30 -68 0 -88 18 -13 55 -16 195 -16 160 0 175
2 193 20 11 11 20 29 20 40 0 11 -9 29 -20 40 -18 18 -33 20 -193 20 -140 0
-177 -3 -195 -16z"/>
<path d="M359 2133 c-83 -81 -99 -102 -99 -128 0 -39 16 -55 55 -55 26 0 47
16 128 99 102 104 115 131 79 164 -36 33 -61 21 -163 -80z"/>
<path d="M2477 2212 c-33 -36 -21 -61 80 -163 81 -83 102 -99 128 -99 39 0 55
16 55 55 0 26 -16 47 -99 128 -104 102 -131 115 -164 79z"/>
<path d="M330 1691 c-22 -42 -8 -209 31 -365 28 -110 44 -155 100 -283 77
-174 92 -243 93 -408 0 -136 -2 -147 -52 -351 -29 -115 -52 -219 -52 -231 0
-44 62 -69 94 -38 18 18 20 26 76 264 54 229 66 327 51 450 -13 120 -32 192
-78 301 -103 247 -137 358 -149 494 l-7 76 415 0 c309 0 417 3 426 12 16 16
16 70 0 86 -9 9 -128 12 -475 12 -447 0 -463 -1 -473 -19z"/>
<path d="M1453 1684 c-15 -24 -15 -29 -2 -53 11 -20 22 -26 49 -26 27 0 38 6
49 26 13 24 13 29 -2 53 -12 18 -26 26 -47 26 -21 0 -35 -8 -47 -26z"/>
<path d="M1722 1698 c-7 -7 -12 -26 -12 -43 0 -17 5 -36 12 -43 9 -9 102 -12
359 -12 l347 0 11 -32 c5 -18 40 -130 76 -248 36 -118 68 -223 71 -232 5 -17
-5 -18 -118 -18 -177 0 -166 15 -170 -228 -3 -218 -9 -243 -73 -307 -65 -65
-87 -69 -337 -75 -157 -3 -231 -9 -239 -17 -15 -15 -81 -381 -73 -406 12 -40
83 -47 103 -9 5 9 19 71 30 137 12 66 24 132 27 146 l5 27 192 4 c238 6 279
18 373 112 89 90 105 138 112 339 l5 157 133 0 c121 0 136 2 154 20 11 11 20
26 20 33 0 27 -205 680 -218 693 -18 19 -771 21 -790 2z"/>
</g>
</svg>
