<?xml version="1.0" standalone="no"?>
<!DOCTYPE svg PUBLIC "-//W3C//DTD SVG 20010904//EN"
 "http://www.w3.org/TR/2001/REC-SVG-20010904/DTD/svg10.dtd">
<svg version="1.0" xmlns="http://www.w3.org/2000/svg"
 width="300.000000pt" height="301.000000pt" viewBox="0 0 300.000000 301.000000"
 preserveAspectRatio="xMidYMid meet">
<metadata>
Created by potrace 1.10, written by Peter Selinger 2001-2011
</metadata>
<g transform="translate(0.000000,301.000000) scale(0.100000,-0.100000)"
fill="#000000" stroke="none">
<path d="M1405 2952 c-192 -159 -320 -381 -375 -644 -6 -32 -12 -58 -13 -58
-1 0 -27 9 -57 21 -75 28 -237 59 -313 59 -68 0 -173 -15 -224 -31 -39 -12
-48 -37 -63 -166 -13 -107 0 -247 32 -351 10 -35 18 -66 15 -68 -2 -2 -46 -8
-99 -14 -106 -11 -243 -50 -280 -79 -21 -18 -23 -27 -22 -108 5 -414 293 -768
699 -858 l76 -17 -3 -71 -3 -70 -45 -13 c-168 -49 -226 -273 -103 -399 77 -79
25 -75 878 -75 715 0 762 2 800 19 52 23 103 74 126 126 22 48 25 142 5 189
-31 74 -108 136 -189 151 l-37 7 0 67 0 66 88 19 c332 68 598 323 681 653 28
109 30 292 4 315 -38 33 -182 70 -316 83 -58 6 -68 9 -62 23 41 107 62 287 47
405 -16 126 -26 154 -65 166 -49 16 -156 31 -218 31 -79 0 -233 -28 -308 -56
-35 -13 -66 -23 -68 -21 -2 2 -8 30 -14 61 -46 250 -200 506 -394 656 -72 56
-93 53 -180 -18z m162 -117 c29 -25 79 -82 112 -125 116 -154 182 -328 203
-538 12 -122 24 -152 61 -152 32 0 57 29 57 67 0 31 4 36 53 58 102 47 172 60
324 60 78 0 145 -3 149 -8 14 -13 17 -222 5 -293 -17 -95 -54 -196 -102 -277
-46 -78 -152 -194 -217 -239 l-44 -31 -27 34 c-77 100 -171 155 -291 172 -41
6 -77 12 -79 13 -2 2 6 15 16 31 43 61 56 114 56 218 0 85 -4 108 -26 157 -34
75 -93 138 -164 173 -50 25 -70 29 -143 30 -72 0 -94 -4 -141 -26 -76 -36
-129 -86 -165 -156 -27 -55 -29 -64 -29 -183 0 -120 1 -127 30 -180 16 -30 31
-58 33 -62 2 -5 -12 -8 -31 -8 -117 0 -240 -53 -316 -136 -28 -31 -51 -60 -51
-65 0 -13 -62 33 -123 90 -98 92 -187 244 -224 381 -22 82 -26 331 -5 352 9 9
52 13 155 13 121 0 153 -4 217 -24 120 -37 150 -56 150 -93 0 -60 57 -90 94
-49 13 15 20 47 26 123 19 232 97 429 232 585 57 66 128 132 143 133 6 0 34
-20 62 -45z m56 -797 c73 -49 107 -116 107 -209 0 -82 -16 -130 -59 -180 -104
-122 -288 -99 -364 46 -29 54 -31 192 -4 247 25 49 63 87 112 110 57 27 158
20 208 -14z m-1121 -500 c60 -91 145 -181 218 -233 67 -48 70 -51 65 -85 -3
-19 -5 -131 -5 -248 l0 -213 -37 7 c-335 62 -610 379 -617 708 -1 69 -1 69 29
78 82 24 158 36 231 37 l81 1 35 -52z m2318 24 l65 -19 3 -49 c2 -27 -6 -91
-18 -143 -65 -279 -276 -497 -554 -572 -117 -32 -106 -55 -106 225 l0 243 56
38 c77 50 179 155 234 239 l45 68 105 -5 c58 -3 134 -14 170 -25z m-887 -142
c58 -29 112 -86 141 -149 20 -44 21 -63 24 -408 l3 -363 -60 0 -61 0 0 183 c0
208 -6 231 -63 225 -51 -5 -57 -30 -57 -230 l0 -178 -365 0 -365 0 0 314 c0
341 -1 346 -55 346 -54 0 -55 -5 -55 -346 l0 -314 -60 0 -60 0 0 355 c0 329 1
358 20 408 30 80 106 152 190 178 14 4 194 7 400 6 l375 -2 48 -25z m-469
-1052 c-4 -7 -11 -52 -14 -101 -6 -78 -10 -91 -33 -115 l-27 -27 -303 -3
c-331 -3 -346 0 -390 59 -40 55 -18 152 42 184 36 19 737 22 725 3z m814 -8
c63 -39 77 -125 30 -185 -41 -53 -59 -55 -423 -55 l-335 0 6 63 c11 128 15
149 39 173 l24 24 313 0 c296 0 315 -1 346 -20z"/>
<path d="M1880 1140 c-24 -24 -25 -38 -4 -68 28 -41 104 -18 104 31 0 23 -36
57 -60 57 -11 0 -29 -9 -40 -20z"/>
</g>
</svg>
