<?xml version="1.0" encoding="utf-8"?>
<!-- Generator: Adobe Illustrator 26.0.0, SVG Export Plug-In . SVG Version: 6.00 Build 0)  -->
<svg version="1.1" id="Capa_1" xmlns="http://www.w3.org/2000/svg" xmlns:xlink="http://www.w3.org/1999/xlink" x="0px" y="0px"
	 viewBox="0 0 117 125" style="enable-background:new 0 0 117 125;" xml:space="preserve">
<style type="text/css">
	.st0{fill-rule:evenodd;clip-rule:evenodd;fill:#579A62;}
</style>
<path class="st0" d="M59.87,58.17c11.65-1.32,14.44-19.11,13.32-28.96C71.66,15.95,63.17,12.82,62,0.35
	c-8.98,10.89-15.64,22.11-14.28,34.49C48.98,48,52.53,56.91,59.87,58.17z"/>
<path class="st0" d="M65.08,73.45c0.82-3.3,12.91-1.21,20.37-1.21c24.23-0.19,24.39,15.2,31.74,22.49
	c-10,0.75-17.27,7.68-30.08,2.56C74.58,92.75,66.36,85.15,65.08,73.45z"/>
<path class="st0" d="M54.52,68.01c0.78-6.9-13.98-4.55-28.95-1.62c-17.59,3.49-17.13,18-25.6,26.96
	c10.49-1.23,18.61,6.65,29.54,1.33C44.05,87.36,59.9,70.71,54.52,68.01z"/>
<path class="st0" d="M49.56,60.1c-2.11-1.39-2.08-3.82-3.2-6.18c-4.45-6.77-11.39-9.19-20.62-7.85c-2.23,0.36-4.77,1.6-7.21,2.54
	c3.5,5.3,7.83,7.3,12.18,8.33c5.7,1.33,4.51,3.36,13.23,2.98C45.87,59.95,47.92,59.2,49.56,60.1z"/>
<path class="st0" d="M57.95,79.55c3.92,3.16,8.26,4.68,8.01,21.23c-1.94,13.02-9.94,16.43-14.81,24.36
	c-1.61-8.88-8.12-13.93-4.82-27.13C49.68,81.4,55.19,82.83,57.95,79.55z"/>
<path class="st0" d="M69.21,64.67c0.45-3.59-0.38-6.82,9.31-12.74c8-3.41,12.98,0.45,19.37,0.72c-4.52,4.13-5,10.16-13.66,12.69
	C73.41,69.4,72.12,65.2,69.21,64.67z"/>
</svg>
